Griffith_Gothic-Ultra_Italic.ufo
<glyph name="exclam" format="1">
  <advance width="306"/>
  <unicode hex="0021"/>
  <outline>
    <contour>
      <point x="389" y="720" type="line"/>
      <point x="207" y="253" type="line"/>
      <point x="85" y="253" type="line"/>
      <point x="147" y="720" type="line"/>
    </contour>
    <contour>
      <point x="218" y="98" type="curve" smooth="yes"/>
      <point x="218" y="38"/>
      <point x="173" y="-7"/>
      <point x="113" y="-7" type="curve" smooth="yes"/>
      <point x="53" y="-7"/>
      <point x="8" y="38"/>
      <point x="8" y="98" type="curve" smooth="yes"/>
      <point x="8" y="158"/>
      <point x="53" y="203"/>
      <point x="113" y="203" type="curve" smooth="yes"/>
      <point x="173" y="203"/>
      <point x="218" y="158"/>
    </contour>
  </outline>
</glyph>
<glyph name="quotedbl" format="1">
  <advance width="510"/>
  <unicode hex="0022"/>
  <outline>
    <contour>
      <point x="580" y="720" type="line"/>
      <point x="448" y="399" type="line"/>
      <point x="343" y="399" type="line"/>
      <point x="371" y="720" type="line"/>
    </contour>
    <contour>
      <point x="333" y="720" type="line"/>
      <point x="201" y="399" type="line"/>
      <point x="96" y="399" type="line"/>
      <point x="124" y="720" type="line"/>
    </contour>
  </outline>
</glyph>
<glyph name="numbersign" format="1">
  <advance width="670"/>
  <unicode hex="0023"/>
  <outline>
    <contour>
      <point x="712" y="593" type="line"/>
      <point x="670" y="429" type="line"/>
      <point x="549" y="429" type="line"/>
      <point x="502" y="291" type="line"/>
      <point x="624" y="291" type="line"/>
      <point x="582" y="127" type="line"/>
      <point x="444" y="127" type="line"/>
      <point x="400" y="0" type="line"/>
      <point x="310" y="0" type="line"/>
      <point x="354" y="127" type="line"/>
      <point x="197" y="127" type="line"/>
      <point x="153" y="0" type="line"/>
      <point x="63" y="0" type="line"/>
      <point x="107" y="127" type="line"/>
      <point x="2" y="127" type="line"/>
      <point x="44" y="291" type="line"/>
      <point x="165" y="291" type="line"/>
      <point x="212" y="429" type="line"/>
      <point x="90" y="429" type="line"/>
      <point x="132" y="593" type="line"/>
      <point x="270" y="593" type="line"/>
      <point x="314" y="720" type="line"/>
      <point x="404" y="720" type="line"/>
      <point x="360" y="593" type="line"/>
      <point x="517" y="593" type="line"/>
      <point x="561" y="720" type="line"/>
      <point x="651" y="720" type="line"/>
      <point x="607" y="593" type="line"/>
    </contour>
    <contour>
      <point x="465" y="435" type="line"/>
      <point x="302" y="435" type="line"/>
      <point x="249" y="285" type="line"/>
      <point x="412" y="285" type="line"/>
    </contour>
  </outline>
</glyph>
<glyph name="percent" format="1">
  <advance width="990"/>
  <unicode hex="0025"/>
  <outline>
    <contour>
      <point x="970" y="274" type="curve" smooth="yes"/>
      <point x="970" y="144"/>
      <point x="879" y="-7"/>
      <point x="729" y="-7" type="curve" smooth="yes"/>
      <point x="626" y="-7"/>
      <point x="556" y="48"/>
      <point x="556" y="156" type="curve" smooth="yes"/>
      <point x="556" y="286"/>
      <point x="647" y="437"/>
      <point x="797" y="437" type="curve" smooth="yes"/>
      <point x="900" y="437"/>
      <point x="970" y="382"/>
    </contour>
    <contour>
      <point x="921" y="720" type="line"/>
      <point x="556" y="343" type="line"/>
      <point x="293" y="0" type="line"/>
      <point x="113" y="0" type="line"/>
      <point x="478" y="377" type="line"/>
      <point x="741" y="720" type="line"/>
    </contour>
    <contour>
      <point x="478" y="564" type="curve" smooth="yes"/>
      <point x="478" y="434"/>
      <point x="387" y="283"/>
      <point x="237" y="283" type="curve" smooth="yes"/>
      <point x="134" y="283"/>
      <point x="64" y="338"/>
      <point x="64" y="446" type="curve" smooth="yes"/>
      <point x="64" y="576"/>
      <point x="155" y="727"/>
      <point x="305" y="727" type="curve" smooth="yes"/>
      <point x="408" y="727"/>
      <point x="478" y="672"/>
    </contour>
    <contour>
      <point x="828" y="268" type="curve" smooth="yes"/>
      <point x="828" y="304"/>
      <point x="812" y="325"/>
      <point x="787" y="325" type="curve" smooth="yes"/>
      <point x="727" y="325"/>
      <point x="698" y="215"/>
      <point x="698" y="162" type="curve" smooth="yes"/>
      <point x="698" y="126"/>
      <point x="714" y="105"/>
      <point x="739" y="105" type="curve" smooth="yes"/>
      <point x="799" y="105"/>
      <point x="828" y="215"/>
    </contour>
    <contour>
      <point x="336" y="558" type="curve" smooth="yes"/>
      <point x="336" y="594"/>
      <point x="320" y="615"/>
      <point x="295" y="615" type="curve" smooth="yes"/>
      <point x="235" y="615"/>
      <point x="206" y="505"/>
      <point x="206" y="452" type="curve" smooth="yes"/>
      <point x="206" y="416"/>
      <point x="222" y="395"/>
      <point x="247" y="395" type="curve" smooth="yes"/>
      <point x="307" y="395"/>
      <point x="336" y="505"/>
    </contour>
  </outline>
</glyph>
<glyph name="ampersand" format="1">
  <advance width="740"/>
  <unicode hex="0026"/>
  <outline>
    <contour>
      <point x="746" y="386" type="line"/>
      <point x="690" y="298"/>
      <point x="626" y="221"/>
      <point x="567" y="163" type="curve"/>
      <point x="587" y="140"/>
      <point x="602" y="135"/>
      <point x="630" y="135" type="curve" smooth="yes"/>
      <point x="655" y="135"/>
      <point x="670" y="138"/>
      <point x="692" y="143" type="curve"/>
      <point x="657" y="1" type="line"/>
      <point x="627" y="-5"/>
      <point x="605" y="-7"/>
      <point x="577" y="-7" type="curve" smooth="yes"/>
      <point x="507" y="-7"/>
      <point x="468" y="10"/>
      <point x="429" y="55" type="curve"/>
      <point x="351" y="10"/>
      <point x="298" y="-10"/>
      <point x="204" y="-10" type="curve" smooth="yes"/>
      <point x="75" y="-10"/>
      <point x="-6" y="50"/>
      <point x="-6" y="160" type="curve" smooth="yes"/>
      <point x="-6" y="276"/>
      <point x="71" y="353"/>
      <point x="214" y="415" type="curve"/>
      <point x="196" y="461"/>
      <point x="191" y="497"/>
      <point x="191" y="530" type="curve" smooth="yes"/>
      <point x="191" y="646"/>
      <point x="282" y="732"/>
      <point x="415" y="732" type="curve" smooth="yes"/>
      <point x="537" y="732"/>
      <point x="599" y="675"/>
      <point x="599" y="587" type="curve" smooth="yes"/>
      <point x="599" y="504"/>
      <point x="536" y="442"/>
      <point x="418" y="392" type="curve"/>
      <point x="444" y="349"/>
      <point x="465" y="316"/>
      <point x="493" y="273" type="curve"/>
      <point x="535" y="322"/>
      <point x="578" y="387"/>
      <point x="614" y="448" type="curve"/>
    </contour>
    <contour>
      <point x="450" y="577" type="curve" smooth="yes"/>
      <point x="450" y="603"/>
      <point x="436" y="623"/>
      <point x="408" y="623" type="curve" smooth="yes"/>
      <point x="370" y="623"/>
      <point x="351" y="587"/>
      <point x="351" y="553" type="curve" smooth="yes"/>
      <point x="351" y="528"/>
      <point x="354" y="507"/>
      <point x="368" y="475" type="curve"/>
      <point x="428" y="505"/>
      <point x="450" y="535"/>
    </contour>
    <contour>
      <point x="359" y="152" type="curve"/>
      <point x="322" y="207"/>
      <point x="295" y="253"/>
      <point x="261" y="317" type="curve"/>
      <point x="212" y="284"/>
      <point x="190" y="249"/>
      <point x="190" y="206" type="curve" smooth="yes"/>
      <point x="190" y="157"/>
      <point x="223" y="129"/>
      <point x="281" y="129" type="curve" smooth="yes"/>
      <point x="307" y="129"/>
      <point x="332" y="137"/>
    </contour>
  </outline>
</glyph>
<glyph name="quotesingle" format="1">
  <advance width="268"/>
  <unicode hex="0027"/>
  <outline>
    <contour>
      <point x="338" y="720" type="line"/>
      <point x="206" y="399" type="line"/>
      <point x="96" y="399" type="line"/>
      <point x="124" y="720" type="line"/>
    </contour>
  </outline>
</glyph>
<glyph name="parenleft" format="1">
  <advance width="411"/>
  <unicode hex="0028"/>
  <outline>
    <contour>
      <point x="526" y="735" type="line"/>
      <point x="297" y="551"/>
      <point x="243" y="392"/>
      <point x="243" y="226" type="curve" smooth="yes"/>
      <point x="243" y="101"/>
      <point x="267" y="13"/>
      <point x="320" y="-95" type="curve"/>
      <point x="156" y="-95" type="line"/>
      <point x="86" y="-2"/>
      <point x="33" y="108"/>
      <point x="33" y="249" type="curve" smooth="yes"/>
      <point x="33" y="434"/>
      <point x="130" y="607"/>
      <point x="333" y="735" type="curve"/>
    </contour>
  </outline>
</glyph>
<glyph name="parenright" format="1">
  <advance width="411"/>
  <unicode hex="0029"/>
  <outline>
    <contour>
      <point x="394" y="391" type="curve" smooth="yes"/>
      <point x="394" y="206"/>
      <point x="297" y="33"/>
      <point x="94" y="-95" type="curve"/>
      <point x="-99" y="-95" type="line"/>
      <point x="130" y="89"/>
      <point x="184" y="248"/>
      <point x="184" y="414" type="curve" smooth="yes"/>
      <point x="184" y="539"/>
      <point x="160" y="627"/>
      <point x="107" y="735" type="curve"/>
      <point x="271" y="735" type="line"/>
      <point x="341" y="642"/>
      <point x="394" y="532"/>
    </contour>
  </outline>
</glyph>
<glyph name="asterisk" format="1">
  <advance width="440"/>
  <unicode hex="002A"/>
  <outline>
    <contour>
      <point x="489" y="517" type="line"/>
      <point x="341" y="521" type="line"/>
      <point x="468" y="437" type="line"/>
      <point x="331" y="337" type="line"/>
      <point x="285" y="487" type="line"/>
      <point x="240" y="337" type="line"/>
      <point x="103" y="437" type="line"/>
      <point x="230" y="521" type="line"/>
      <point x="81" y="517" type="line"/>
      <point x="134" y="677" type="line"/>
      <point x="253" y="579" type="line"/>
      <point x="200" y="720" type="line"/>
      <point x="370" y="720" type="line"/>
      <point x="317" y="579" type="line"/>
      <point x="437" y="676" type="line"/>
    </contour>
  </outline>
</glyph>
<glyph name="comma" format="1">
  <advance width="268"/>
  <unicode hex="002C"/>
  <outline>
    <contour>
      <point x="248" y="208" type="line"/>
      <point x="40" y="-113" type="line"/>
      <point x="-74" y="-113" type="line"/>
      <point x="30" y="208" type="line"/>
    </contour>
  </outline>
</glyph>
<glyph name="one" format="1">
  <advance width="460"/>
  <unicode hex="0031"/>
  <outline>
    <contour>
      <point x="458" y="720" type="line"/>
      <point x="310" y="125" type="line"/>
      <point x="410" y="125" type="line"/>
      <point x="379" y="0" type="line"/>
      <point x="-33" y="0" type="line"/>
      <point x="-2" y="125" type="line"/>
      <point x="99" y="125" type="line"/>
      <point x="216" y="595" type="line"/>
      <point x="103" y="595" type="line"/>
      <point x="134" y="720" type="line"/>
    </contour>
  </outline>
</glyph>
<glyph name="three" format="1">
  <advance width="561"/>
  <unicode hex="0033"/>
  <outline>
    <contour>
      <point x="577" y="573" type="curve" smooth="yes"/>
      <point x="577" y="485"/>
      <point x="509" y="431"/>
      <point x="393" y="398" type="curve"/>
      <point x="393" y="394" type="line"/>
      <point x="487" y="384"/>
      <point x="542" y="340"/>
      <point x="542" y="250" type="curve" smooth="yes"/>
      <point x="542" y="95"/>
      <point x="376" y="-6"/>
      <point x="96" y="-6" type="curve" smooth="yes"/>
      <point x="54" y="-6"/>
      <point x="0" y="-3"/>
      <point x="-47" y="2" type="curve"/>
      <point x="-15" y="144" type="line"/>
      <point x="20" y="142"/>
      <point x="48" y="140"/>
      <point x="76" y="140" type="curve" smooth="yes"/>
      <point x="255" y="140"/>
      <point x="329" y="184"/>
      <point x="329" y="246" type="curve" smooth="yes"/>
      <point x="329" y="285"/>
      <point x="299" y="307"/>
      <point x="254" y="307" type="curve" smooth="yes"/>
      <point x="230" y="307"/>
      <point x="203" y="303"/>
      <point x="174" y="297" type="curve"/>
      <point x="154" y="417" type="line"/>
      <point x="341" y="460"/>
      <point x="373" y="496"/>
      <point x="373" y="539" type="curve" smooth="yes"/>
      <point x="373" y="568"/>
      <point x="356" y="584"/>
      <point x="316" y="584" type="curve" smooth="yes"/>
      <point x="273" y="584"/>
      <point x="229" y="566"/>
      <point x="173" y="527" type="curve"/>
      <point x="88" y="633" type="line"/>
      <point x="181" y="703"/>
      <point x="273" y="732"/>
      <point x="365" y="732" type="curve" smooth="yes"/>
      <point x="505" y="732"/>
      <point x="577" y="671"/>
    </contour>
  </outline>
</glyph>
<glyph name="four" format="1">
  <advance width="641"/>
  <unicode hex="0034"/>
  <outline>
    <contour>
      <point x="647" y="720" type="line"/>
      <point x="536" y="275" type="line"/>
      <point x="630" y="275" type="line"/>
      <point x="601" y="161" type="line"/>
      <point x="507" y="161" type="line"/>
      <point x="467" y="0" type="line"/>
      <point x="266" y="0" type="line"/>
      <point x="306" y="161" type="line"/>
      <point x="-10" y="161" type="line"/>
      <point x="28" y="312" type="line"/>
      <point x="395" y="720" type="line"/>
    </contour>
    <contour>
      <point x="403" y="547" type="line"/>
      <point x="397" y="547" type="line"/>
      <point x="157" y="281" type="line"/>
      <point x="157" y="275" type="line"/>
      <point x="335" y="275" type="line"/>
    </contour>
  </outline>
</glyph>
<glyph name="six" format="1">
  <advance width="621"/>
  <unicode hex="0036"/>
  <outline>
    <contour>
      <point x="649" y="720" type="line"/>
      <point x="454" y="614"/>
      <point x="310" y="508"/>
      <point x="256" y="428" type="curve"/>
      <point x="262" y="428" type="line"/>
      <point x="306" y="459"/>
      <point x="359" y="479"/>
      <point x="423" y="479" type="curve" smooth="yes"/>
      <point x="527" y="479"/>
      <point x="600" y="419"/>
      <point x="600" y="298" type="curve" smooth="yes"/>
      <point x="600" y="129"/>
      <point x="474" y="-12"/>
      <point x="283" y="-12" type="curve" smooth="yes"/>
      <point x="129" y="-12"/>
      <point x="25" y="48"/>
      <point x="25" y="209" type="curve" smooth="yes"/>
      <point x="25" y="413"/>
      <point x="150" y="579"/>
      <point x="363" y="720" type="curve"/>
    </contour>
    <contour>
      <point x="391" y="267" type="curve" smooth="yes"/>
      <point x="391" y="315"/>
      <point x="365" y="342"/>
      <point x="323" y="342" type="curve" smooth="yes"/>
      <point x="263" y="342"/>
      <point x="222" y="275"/>
      <point x="222" y="201" type="curve" smooth="yes"/>
      <point x="222" y="153"/>
      <point x="248" y="126"/>
      <point x="290" y="126" type="curve" smooth="yes"/>
      <point x="350" y="126"/>
      <point x="391" y="193"/>
    </contour>
  </outline>
</glyph>
<glyph name="seven" format="1">
  <advance width="572"/>
  <unicode hex="0037"/>
  <outline>
    <contour>
      <point x="669" y="720" type="line"/>
      <point x="639" y="603" type="line"/>
      <point x="487" y="447"/>
      <point x="333" y="225"/>
      <point x="231" y="0" type="curve"/>
      <point x="3" y="0" type="line"/>
      <point x="111" y="213"/>
      <point x="251" y="400"/>
      <point x="399" y="553" type="curve"/>
      <point x="88" y="553" type="line"/>
      <point x="130" y="720" type="line"/>
    </contour>
  </outline>
</glyph>
<glyph name="eight" format="1">
  <advance width="611"/>
  <unicode hex="0038"/>
  <outline>
    <contour>
      <point x="627" y="555" type="curve" smooth="yes"/>
      <point x="627" y="462"/>
      <point x="563" y="395"/>
      <point x="481" y="372" type="curve"/>
      <point x="481" y="367" type="line"/>
      <point x="532" y="346"/>
      <point x="576" y="298"/>
      <point x="576" y="225" type="curve" smooth="yes"/>
      <point x="576" y="82"/>
      <point x="461" y="-12"/>
      <point x="277" y="-12" type="curve" smooth="yes"/>
      <point x="112" y="-12"/>
      <point x="8" y="56"/>
      <point x="8" y="181" type="curve" smooth="yes"/>
      <point x="8" y="293"/>
      <point x="84" y="368"/>
      <point x="181" y="394" type="curve"/>
      <point x="181" y="399" type="line"/>
      <point x="129" y="430"/>
      <point x="101" y="469"/>
      <point x="101" y="530" type="curve" smooth="yes"/>
      <point x="101" y="645"/>
      <point x="210" y="732"/>
      <point x="374" y="732" type="curve" smooth="yes"/>
      <point x="530" y="732"/>
      <point x="627" y="665"/>
    </contour>
    <contour>
      <point x="426" y="533" type="curve" smooth="yes"/>
      <point x="426" y="575"/>
      <point x="401" y="595"/>
      <point x="369" y="595" type="curve" smooth="yes"/>
      <point x="322" y="595"/>
      <point x="294" y="542"/>
      <point x="294" y="500" type="curve" smooth="yes"/>
      <point x="294" y="458"/>
      <point x="319" y="438"/>
      <point x="351" y="438" type="curve" smooth="yes"/>
      <point x="398" y="438"/>
      <point x="426" y="491"/>
    </contour>
    <contour>
      <point x="380" y="239" type="curve" smooth="yes"/>
      <point x="380" y="289"/>
      <point x="350" y="317"/>
      <point x="307" y="317" type="curve" smooth="yes"/>
      <point x="248" y="317"/>
      <point x="212" y="259"/>
      <point x="212" y="203" type="curve" smooth="yes"/>
      <point x="212" y="153"/>
      <point x="242" y="125"/>
      <point x="285" y="125" type="curve" smooth="yes"/>
      <point x="344" y="125"/>
      <point x="380" y="183"/>
    </contour>
  </outline>
</glyph>
<glyph name="colon" format="1">
  <advance width="278"/>
  <unicode hex="003A"/>
  <outline>
    <contour>
      <point x="291" y="439" type="curve" smooth="yes"/>
      <point x="291" y="376"/>
      <point x="244" y="329"/>
      <point x="181" y="329" type="curve" smooth="yes"/>
      <point x="118" y="329"/>
      <point x="71" y="376"/>
      <point x="71" y="439" type="curve" smooth="yes"/>
      <point x="71" y="502"/>
      <point x="118" y="549"/>
      <point x="181" y="549" type="curve" smooth="yes"/>
      <point x="244" y="549"/>
      <point x="291" y="502"/>
    </contour>
    <contour>
      <point x="210" y="103" type="curve" smooth="yes"/>
      <point x="210" y="40"/>
      <point x="163" y="-7"/>
      <point x="100" y="-7" type="curve" smooth="yes"/>
      <point x="37" y="-7"/>
      <point x="-10" y="40"/>
      <point x="-10" y="103" type="curve" smooth="yes"/>
      <point x="-10" y="166"/>
      <point x="37" y="213"/>
      <point x="100" y="213" type="curve" smooth="yes"/>
      <point x="163" y="213"/>
      <point x="210" y="166"/>
    </contour>
  </outline>
</glyph>
<glyph name="semicolon" format="1">
  <advance width="278"/>
  <unicode hex="003B"/>
  <outline>
    <contour>
      <point x="296" y="439" type="curve" smooth="yes"/>
      <point x="296" y="376"/>
      <point x="249" y="329"/>
      <point x="186" y="329" type="curve" smooth="yes"/>
      <point x="123" y="329"/>
      <point x="76" y="376"/>
      <point x="76" y="439" type="curve" smooth="yes"/>
      <point x="76" y="502"/>
      <point x="123" y="549"/>
      <point x="186" y="549" type="curve" smooth="yes"/>
      <point x="249" y="549"/>
      <point x="296" y="502"/>
    </contour>
    <contour>
      <point x="246" y="208" type="line"/>
      <point x="38" y="-113" type="line"/>
      <point x="-76" y="-113" type="line"/>
      <point x="28" y="208" type="line"/>
    </contour>
  </outline>
</glyph>
<glyph name="less" format="1">
  <advance width="600"/>
  <unicode hex="003C"/>
  <outline>
    <contour>
      <point x="581" y="59" type="line"/>
      <point x="57" y="275" type="line"/>
      <point x="57" y="435" type="line"/>
      <point x="581" y="651" type="line"/>
      <point x="581" y="474" type="line"/>
      <point x="250" y="355" type="line"/>
      <point x="581" y="236" type="line"/>
    </contour>
  </outline>
</glyph>
<glyph name="equal" format="1">
  <advance width="600"/>
  <unicode hex="003D"/>
  <outline>
    <contour>
      <point x="570" y="407" type="line"/>
      <point x="72" y="407" type="line"/>
      <point x="72" y="575" type="line"/>
      <point x="570" y="575" type="line"/>
    </contour>
    <contour>
      <point x="570" y="135" type="line"/>
      <point x="72" y="135" type="line"/>
      <point x="72" y="303" type="line"/>
      <point x="570" y="303" type="line"/>
    </contour>
  </outline>
</glyph>
<glyph name="question" format="1">
  <advance width="532"/>
  <unicode hex="003F"/>
  <outline>
    <contour>
      <point x="580" y="559" type="curve" smooth="yes"/>
      <point x="580" y="447"/>
      <point x="515" y="383"/>
      <point x="412" y="335" type="curve" smooth="yes"/>
      <point x="341" y="302"/>
      <point x="316" y="287"/>
      <point x="300" y="253" type="curve"/>
      <point x="166" y="253" type="line"/>
      <point x="170" y="347"/>
      <point x="202" y="390"/>
      <point x="292" y="437" type="curve" smooth="yes"/>
      <point x="345" y="465"/>
      <point x="377" y="494"/>
      <point x="377" y="529" type="curve" smooth="yes"/>
      <point x="377" y="559"/>
      <point x="361" y="577"/>
      <point x="330" y="577" type="curve" smooth="yes"/>
      <point x="299" y="577"/>
      <point x="262" y="552"/>
      <point x="212" y="480" type="curve"/>
      <point x="75" y="563" type="line"/>
      <point x="147" y="678"/>
      <point x="240" y="732"/>
      <point x="351" y="732" type="curve" smooth="yes"/>
      <point x="486" y="732"/>
      <point x="580" y="664"/>
    </contour>
    <contour>
      <point x="301" y="98" type="curve" smooth="yes"/>
      <point x="301" y="38"/>
      <point x="256" y="-7"/>
      <point x="196" y="-7" type="curve" smooth="yes"/>
      <point x="136" y="-7"/>
      <point x="91" y="38"/>
      <point x="91" y="98" type="curve" smooth="yes"/>
      <point x="91" y="158"/>
      <point x="136" y="203"/>
      <point x="196" y="203" type="curve" smooth="yes"/>
      <point x="256" y="203"/>
      <point x="301" y="158"/>
    </contour>
  </outline>
</glyph>
<glyph name="at" format="1">
  <advance width="960"/>
  <unicode hex="0040"/>
  <outline>
    <contour>
      <point x="924" y="333" type="curve" smooth="yes"/>
      <point x="924" y="134"/>
      <point x="809" y="21"/>
      <point x="667" y="21" type="curve" smooth="yes"/>
      <point x="577" y="21"/>
      <point x="532" y="69"/>
      <point x="516" y="133" type="curve"/>
      <point x="512" y="133" type="line"/>
      <point x="472" y="65"/>
      <point x="412" y="21"/>
      <point x="347" y="21" type="curve" smooth="yes"/>
      <point x="269" y="21"/>
      <point x="228" y="79"/>
      <point x="228" y="183" type="curve" smooth="yes"/>
      <point x="228" y="322"/>
      <point x="286" y="522"/>
      <point x="413" y="522" type="curve" smooth="yes"/>
      <point x="482" y="522"/>
      <point x="513" y="484"/>
      <point x="537" y="427" type="curve"/>
      <point x="541" y="427" type="line"/>
      <point x="557" y="523" type="line"/>
      <point x="737" y="501" type="line"/>
      <point x="678" y="172" type="line" smooth="yes"/>
      <point x="668" y="116"/>
      <point x="686" y="84"/>
      <point x="730" y="84" type="curve" smooth="yes"/>
      <point x="809" y="84"/>
      <point x="875" y="191"/>
      <point x="875" y="331" type="curve" smooth="yes"/>
      <point x="875" y="552"/>
      <point x="720" y="690"/>
      <point x="497" y="690" type="curve" smooth="yes"/>
      <point x="265" y="690"/>
      <point x="86" y="502"/>
      <point x="86" y="266" type="curve" smooth="yes"/>
      <point x="86" y="17"/>
      <point x="245" y="-150"/>
      <point x="488" y="-150" type="curve" smooth="yes"/>
      <point x="608" y="-150"/>
      <point x="692" y="-127"/>
      <point x="780" y="-78" type="curve"/>
      <point x="801" y="-114" type="line"/>
      <point x="708" y="-164"/>
      <point x="616" y="-192"/>
      <point x="486" y="-192" type="curve" smooth="yes"/>
      <point x="216" y="-192"/>
      <point x="36" y="-10"/>
      <point x="36" y="265" type="curve" smooth="yes"/>
      <point x="36" y="529"/>
      <point x="246" y="732"/>
      <point x="500" y="732" type="curve" smooth="yes"/>
      <point x="739" y="732"/>
      <point x="924" y="574"/>
    </contour>
    <contour>
      <point x="521" y="344" type="curve" smooth="yes"/>
      <point x="521" y="382"/>
      <point x="510" y="402"/>
      <point x="487" y="402" type="curve" smooth="yes"/>
      <point x="446" y="402"/>
      <point x="410" y="296"/>
      <point x="410" y="186" type="curve" smooth="yes"/>
      <point x="410" y="148"/>
      <point x="421" y="128"/>
      <point x="444" y="128" type="curve" smooth="yes"/>
      <point x="485" y="128"/>
      <point x="521" y="234"/>
    </contour>
  </outline>
</glyph>
<glyph name="F" format="1">
  <advance width="536"/>
  <unicode hex="0046"/>
  <outline>
    <contour>
      <point x="630" y="720" type="line"/>
      <point x="588" y="554" type="line"/>
      <point x="328" y="554" type="line"/>
      <point x="296" y="427" type="line"/>
      <point x="463" y="427" type="line"/>
      <point x="423" y="266" type="line"/>
      <point x="256" y="266" type="line"/>
      <point x="190" y="0" type="line"/>
      <point x="-26" y="0" type="line"/>
      <point x="154" y="720" type="line"/>
    </contour>
  </outline>
</glyph>
<glyph name="G" format="1">
  <advance width="666"/>
  <unicode hex="0047"/>
  <outline>
    <contour>
      <point x="661" y="466" type="curve"/>
      <point x="447" y="429" type="line"/>
      <point x="461" y="530"/>
      <point x="444" y="570"/>
      <point x="394" y="570" type="curve" smooth="yes"/>
      <point x="345" y="570"/>
      <point x="317" y="514"/>
      <point x="283" y="390" type="curve" smooth="yes"/>
      <point x="261" y="311"/>
      <point x="254" y="256"/>
      <point x="254" y="222" type="curve" smooth="yes"/>
      <point x="254" y="218" type="line" smooth="yes"/>
      <point x="254" y="176"/>
      <point x="276" y="150"/>
      <point x="312" y="150" type="curve" smooth="yes"/>
      <point x="350" y="150"/>
      <point x="389" y="178"/>
      <point x="419" y="282" type="curve"/>
      <point x="335" y="282" type="line"/>
      <point x="354" y="357" type="line"/>
      <point x="651" y="357" type="line"/>
      <point x="561" y="-3" type="line"/>
      <point x="487" y="-3" type="line"/>
      <point x="482" y="98" type="line"/>
      <point x="477" y="98" type="line"/>
      <point x="426" y="26"/>
      <point x="361" y="-12"/>
      <point x="275" y="-12" type="curve" smooth="yes"/>
      <point x="131" y="-12"/>
      <point x="38" y="72"/>
      <point x="38" y="226" type="curve" smooth="yes"/>
      <point x="38" y="231" type="line" smooth="yes"/>
      <point x="38" y="265"/>
      <point x="45" y="333"/>
      <point x="54" y="373" type="curve" smooth="yes"/>
      <point x="111" y="628"/>
      <point x="218" y="732"/>
      <point x="413" y="732" type="curve" smooth="yes"/>
      <point x="605" y="732"/>
      <point x="678" y="624"/>
    </contour>
  </outline>
</glyph>
<glyph name="H" format="1">
  <advance width="658"/>
  <unicode hex="0048"/>
  <outline>
    <contour>
      <point x="728" y="720" type="line"/>
      <point x="548" y="0" type="line"/>
      <point x="332" y="0" type="line"/>
      <point x="401" y="276" type="line"/>
      <point x="259" y="276" type="line"/>
      <point x="190" y="0" type="line"/>
      <point x="-26" y="0" type="line"/>
      <point x="154" y="720" type="line"/>
      <point x="370" y="720" type="line"/>
      <point x="306" y="462" type="line"/>
      <point x="448" y="462" type="line"/>
      <point x="512" y="720" type="line"/>
    </contour>
  </outline>
</glyph>
<glyph name="J" format="1">
  <advance width="569"/>
  <unicode hex="004A"/>
  <outline>
    <contour>
      <point x="645" y="720" type="line"/>
      <point x="522" y="225" type="line" smooth="yes"/>
      <point x="482" y="64"/>
      <point x="393" y="-12"/>
      <point x="226" y="-12" type="curve" smooth="yes"/>
      <point x="84" y="-12"/>
      <point x="-7" y="49"/>
      <point x="-7" y="169" type="curve" smooth="yes"/>
      <point x="-7" y="191"/>
      <point x="-5" y="210"/>
      <point x="0" y="236" type="curve"/>
      <point x="209" y="267" type="line"/>
      <point x="203" y="242"/>
      <point x="200" y="221"/>
      <point x="200" y="205" type="curve" smooth="yes"/>
      <point x="200" y="171"/>
      <point x="217" y="157"/>
      <point x="244" y="157" type="curve" smooth="yes"/>
      <point x="275" y="157"/>
      <point x="295" y="181"/>
      <point x="307" y="229" type="curve" smooth="yes"/>
      <point x="429" y="720" type="line"/>
    </contour>
  </outline>
</glyph>
<glyph name="K" format="1">
  <advance width="683"/>
  <unicode hex="004B"/>
  <outline>
    <contour>
      <point x="782" y="720" type="line"/>
      <point x="514" y="389" type="line"/>
      <point x="619" y="0" type="line"/>
      <point x="392" y="0" type="line"/>
      <point x="296" y="388" type="line"/>
      <point x="296" y="394" type="line"/>
      <point x="545" y="720" type="line"/>
    </contour>
    <contour>
      <point x="370" y="720" type="line"/>
      <point x="190" y="0" type="line"/>
      <point x="-26" y="0" type="line"/>
      <point x="154" y="720" type="line"/>
    </contour>
  </outline>
</glyph>
<glyph name="L" format="1">
  <advance width="536"/>
  <unicode hex="004C"/>
  <outline>
    <contour>
      <point x="495" y="180" type="line"/>
      <point x="450" y="0" type="line"/>
      <point x="-26" y="0" type="line"/>
      <point x="154" y="720" type="line"/>
      <point x="370" y="720" type="line"/>
      <point x="235" y="180" type="line"/>
    </contour>
  </outline>
</glyph>
<glyph name="N" format="1">
  <advance width="658"/>
  <unicode hex="004E"/>
  <outline>
    <contour>
      <point x="728" y="720" type="line"/>
      <point x="548" y="0" type="line"/>
      <point x="365" y="0" type="line"/>
      <point x="270" y="374" type="line"/>
      <point x="266" y="374" type="line"/>
      <point x="172" y="0" type="line"/>
      <point x="-26" y="0" type="line"/>
      <point x="154" y="720" type="line"/>
      <point x="357" y="720" type="line"/>
      <point x="442" y="382" type="line"/>
      <point x="446" y="382" type="line"/>
      <point x="530" y="720" type="line"/>
    </contour>
  </outline>
</glyph>
<glyph name="O" format="1">
  <advance width="660"/>
  <unicode hex="004F"/>
  <outline>
    <contour>
      <point x="666" y="489" type="line" smooth="yes"/>
      <point x="666" y="455"/>
      <point x="659" y="387"/>
      <point x="650" y="347" type="curve" smooth="yes"/>
      <point x="593" y="92"/>
      <point x="486" y="-12"/>
      <point x="290" y="-12" type="curve" smooth="yes"/>
      <point x="138" y="-12"/>
      <point x="38" y="72"/>
      <point x="38" y="226" type="curve" smooth="yes"/>
      <point x="38" y="231" type="line" smooth="yes"/>
      <point x="38" y="265"/>
      <point x="45" y="333"/>
      <point x="54" y="373" type="curve" smooth="yes"/>
      <point x="111" y="628"/>
      <point x="218" y="732"/>
      <point x="414" y="732" type="curve" smooth="yes"/>
      <point x="566" y="732"/>
      <point x="666" y="648"/>
      <point x="666" y="494" type="curve" smooth="yes"/>
    </contour>
    <contour>
      <point x="450" y="497" type="curve" smooth="yes"/>
      <point x="450" y="501" type="line" smooth="yes"/>
      <point x="450" y="543"/>
      <point x="431" y="570"/>
      <point x="396" y="570" type="curve" smooth="yes"/>
      <point x="351" y="570"/>
      <point x="321" y="530"/>
      <point x="283" y="390" type="curve" smooth="yes"/>
      <point x="261" y="311"/>
      <point x="254" y="257"/>
      <point x="254" y="223" type="curve" smooth="yes"/>
      <point x="254" y="219" type="line" smooth="yes"/>
      <point x="254" y="177"/>
      <point x="273" y="150"/>
      <point x="308" y="150" type="curve" smooth="yes"/>
      <point x="353" y="150"/>
      <point x="383" y="190"/>
      <point x="421" y="330" type="curve" smooth="yes"/>
      <point x="443" y="409"/>
      <point x="450" y="463"/>
    </contour>
  </outline>
</glyph>
<glyph name="P" format="1">
  <advance width="601"/>
  <unicode hex="0050"/>
  <outline>
    <contour>
      <point x="642" y="526" type="curve" smooth="yes"/>
      <point x="642" y="359"/>
      <point x="518" y="256"/>
      <point x="323" y="256" type="curve" smooth="yes"/>
      <point x="254" y="256" type="line"/>
      <point x="190" y="0" type="line"/>
      <point x="-26" y="0" type="line"/>
      <point x="154" y="720" type="line"/>
      <point x="391" y="720" type="line" smooth="yes"/>
      <point x="558" y="720"/>
      <point x="642" y="652"/>
    </contour>
    <contour>
      <point x="430" y="504" type="curve" smooth="yes"/>
      <point x="430" y="553"/>
      <point x="401" y="570"/>
      <point x="343" y="570" type="curve" smooth="yes"/>
      <point x="323" y="570" type="line"/>
      <point x="283" y="410" type="line"/>
      <point x="327" y="410" type="line" smooth="yes"/>
      <point x="389" y="410"/>
      <point x="430" y="448"/>
    </contour>
  </outline>
</glyph>
<glyph name="U" format="1">
  <advance width="634"/>
  <unicode hex="0055"/>
  <outline>
    <contour>
      <point x="711" y="720" type="line"/>
      <point x="591" y="240" type="line" smooth="yes"/>
      <point x="546" y="59"/>
      <point x="438" y="-12"/>
      <point x="288" y="-12" type="curve" smooth="yes"/>
      <point x="123" y="-12"/>
      <point x="27" y="53"/>
      <point x="27" y="186" type="curve" smooth="yes"/>
      <point x="27" y="221"/>
      <point x="33" y="262"/>
      <point x="41" y="295" type="curve" smooth="yes"/>
      <point x="147" y="720" type="line"/>
      <point x="363" y="720" type="line"/>
      <point x="254" y="284" type="line" smooth="yes"/>
      <point x="248" y="260"/>
      <point x="244" y="233"/>
      <point x="244" y="217" type="curve" smooth="yes"/>
      <point x="244" y="179"/>
      <point x="264" y="157"/>
      <point x="302" y="157" type="curve" smooth="yes"/>
      <point x="341" y="157"/>
      <point x="373" y="189"/>
      <point x="389" y="255" type="curve" smooth="yes"/>
      <point x="505" y="720" type="line"/>
    </contour>
  </outline>
</glyph>
<glyph name="V" format="1">
  <advance width="686"/>
  <unicode hex="0056"/>
  <outline>
    <contour>
      <point x="790" y="720" type="line"/>
      <point x="392" y="-4" type="line"/>
      <point x="156" y="-4" type="line"/>
      <point x="120" y="720" type="line"/>
      <point x="338" y="720" type="line"/>
      <point x="328" y="231" type="line"/>
      <point x="332" y="231" type="line"/>
      <point x="566" y="720" type="line"/>
    </contour>
  </outline>
</glyph>
<glyph name="W" format="1">
  <advance width="1002"/>
  <unicode hex="0057"/>
  <outline>
    <contour>
      <point x="1103" y="720" type="line"/>
      <point x="754" y="-4" type="line"/>
      <point x="528" y="-4" type="line"/>
      <point x="545" y="442" type="line"/>
      <point x="541" y="442" type="line"/>
      <point x="336" y="-4" type="line"/>
      <point x="110" y="-4" type="line"/>
      <point x="123" y="720" type="line"/>
      <point x="341" y="720" type="line"/>
      <point x="294" y="261" type="line"/>
      <point x="298" y="261" type="line"/>
      <point x="501" y="720" type="line"/>
      <point x="719" y="720" type="line"/>
      <point x="692" y="261" type="line"/>
      <point x="696" y="261" type="line"/>
      <point x="879" y="720" type="line"/>
    </contour>
  </outline>
</glyph>
<glyph name="bracketleft" format="1">
  <advance width="420"/>
  <unicode hex="005B"/>
  <outline>
    <contour>
      <point x="511" y="720" type="line"/>
      <point x="492" y="645" type="line"/>
      <point x="336" y="650" type="line"/>
      <point x="172" y="-10" type="line"/>
      <point x="330" y="-5" type="line"/>
      <point x="311" y="-80" type="line"/>
      <point x="-37" y="-91" type="line"/>
      <point x="167" y="731" type="line"/>
    </contour>
  </outline>
</glyph>
<glyph name="bracketright" format="1">
  <advance width="420"/>
  <unicode hex="005D"/>
  <outline>
    <contour>
      <point x="481" y="731" type="line"/>
      <point x="277" y="-91" type="line"/>
      <point x="-67" y="-80" type="line"/>
      <point x="-48" y="-5" type="line"/>
      <point x="108" y="-10" type="line"/>
      <point x="272" y="650" type="line"/>
      <point x="114" y="645" type="line"/>
      <point x="133" y="720" type="line"/>
    </contour>
  </outline>
</glyph>
<glyph name="asciicircum" format="1">
  <advance width="550"/>
  <unicode hex="005E"/>
  <outline>
    <contour>
      <point x="567" y="407" type="line"/>
      <point x="441" y="407" type="line"/>
      <point x="351" y="556" type="line"/>
      <point x="187" y="407" type="line"/>
      <point x="51" y="407" type="line"/>
      <point x="295" y="725" type="line"/>
      <point x="481" y="725" type="line"/>
    </contour>
  </outline>
</glyph>
<glyph name="c" format="1">
  <advance width="515"/>
  <unicode hex="0063"/>
  <outline>
    <contour>
      <point x="521" y="340" type="curve"/>
      <point x="327" y="321" type="line"/>
      <point x="340" y="393"/>
      <point x="338" y="423"/>
      <point x="308" y="423" type="curve" smooth="yes"/>
      <point x="276" y="423"/>
      <point x="257" y="375"/>
      <point x="229" y="271" type="curve" smooth="yes"/>
      <point x="217" y="227"/>
      <point x="211" y="186"/>
      <point x="211" y="160" type="curve" smooth="yes"/>
      <point x="211" y="158" type="line" smooth="yes"/>
      <point x="211" y="134"/>
      <point x="221" y="118"/>
      <point x="239" y="118" type="curve" smooth="yes"/>
      <point x="262" y="118"/>
      <point x="281" y="141"/>
      <point x="307" y="204" type="curve"/>
      <point x="481" y="159" type="line"/>
      <point x="435" y="55"/>
      <point x="359" y="-10"/>
      <point x="227" y="-10" type="curve" smooth="yes"/>
      <point x="90" y="-10"/>
      <point x="12" y="55"/>
      <point x="12" y="186" type="curve" smooth="yes"/>
      <point x="12" y="188" type="line" smooth="yes"/>
      <point x="12" y="215"/>
      <point x="19" y="257"/>
      <point x="28" y="294" type="curve" smooth="yes"/>
      <point x="71" y="464"/>
      <point x="162" y="552"/>
      <point x="325" y="552" type="curve" smooth="yes"/>
      <point x="481" y="552"/>
      <point x="534" y="473"/>
    </contour>
  </outline>
</glyph>
<glyph name="f" format="1">
  <advance width="424"/>
  <unicode hex="0066"/>
  <outline>
    <contour>
      <point x="563" y="742" type="curve"/>
      <point x="531" y="611" type="line"/>
      <point x="507" y="619"/>
      <point x="486" y="624"/>
      <point x="453" y="624" type="curve" smooth="yes"/>
      <point x="408" y="624"/>
      <point x="382" y="607"/>
      <point x="370" y="560" type="curve" smooth="yes"/>
      <point x="365" y="540" type="line"/>
      <point x="488" y="540" type="line"/>
      <point x="455" y="406" type="line"/>
      <point x="332" y="406" type="line"/>
      <point x="231" y="0" type="line"/>
      <point x="31" y="0" type="line"/>
      <point x="132" y="406" type="line"/>
      <point x="43" y="406" type="line"/>
      <point x="76" y="540" type="line"/>
      <point x="165" y="540" type="line"/>
      <point x="177" y="585" type="line" smooth="yes"/>
      <point x="211" y="713"/>
      <point x="275" y="759"/>
      <point x="418" y="759" type="curve" smooth="yes"/>
      <point x="483" y="759"/>
      <point x="518" y="754"/>
    </contour>
  </outline>
</glyph>
<glyph name="g" format="1">
  <advance width="567"/>
  <unicode hex="0067"/>
  <outline>
    <contour>
      <point x="592" y="526" type="line"/>
      <point x="472" y="46" type="line" smooth="yes"/>
      <point x="426" y="-137"/>
      <point x="334" y="-191"/>
      <point x="137" y="-191" type="curve" smooth="yes"/>
      <point x="63" y="-191"/>
      <point x="11" y="-182"/>
      <point x="-34" y="-167" type="curve"/>
      <point x="-3" y="-42" type="line"/>
      <point x="32" y="-42" type="line"/>
      <point x="47" y="-68"/>
      <point x="79" y="-89"/>
      <point x="132" y="-89" type="curve" smooth="yes"/>
      <point x="197" y="-89"/>
      <point x="243" y="-56"/>
      <point x="262" y="19" type="curve" smooth="yes"/>
      <point x="281" y="95" type="line"/>
      <point x="277" y="95" type="line"/>
      <point x="214" y="25"/>
      <point x="170" y="-7"/>
      <point x="116" y="-7" type="curve" smooth="yes"/>
      <point x="49" y="-7"/>
      <point x="9" y="43"/>
      <point x="9" y="131" type="curve" smooth="yes"/>
      <point x="9" y="133" type="line" smooth="yes"/>
      <point x="9" y="333"/>
      <point x="116" y="549"/>
      <point x="239" y="549" type="curve" smooth="yes"/>
      <point x="297" y="549"/>
      <point x="325" y="527"/>
      <point x="368" y="463" type="curve"/>
      <point x="372" y="463" type="line"/>
      <point x="394" y="550" type="line"/>
    </contour>
    <contour>
      <point x="344" y="377" type="curve" smooth="yes"/>
      <point x="344" y="418"/>
      <point x="335" y="429"/>
      <point x="316" y="429" type="curve" smooth="yes"/>
      <point x="260" y="429"/>
      <point x="212" y="260"/>
      <point x="212" y="181" type="curve" smooth="yes"/>
      <point x="212" y="140"/>
      <point x="221" y="129"/>
      <point x="240" y="129" type="curve" smooth="yes"/>
      <point x="296" y="129"/>
      <point x="344" y="298"/>
    </contour>
  </outline>
</glyph>
<glyph name="h" format="1">
  <advance width="568"/>
  <unicode hex="0068"/>
  <outline>
    <contour>
      <point x="572" y="445" type="curve" smooth="yes"/>
      <point x="572" y="428"/>
      <point x="569" y="408"/>
      <point x="564" y="386" type="curve" smooth="yes"/>
      <point x="468" y="0" type="line"/>
      <point x="264" y="0" type="line"/>
      <point x="348" y="335" type="line" smooth="yes"/>
      <point x="351" y="347"/>
      <point x="352" y="357"/>
      <point x="352" y="366" type="curve" smooth="yes"/>
      <point x="352" y="387"/>
      <point x="340" y="398"/>
      <point x="315" y="398" type="curve" smooth="yes"/>
      <point x="302" y="398"/>
      <point x="289" y="394"/>
      <point x="271" y="385" type="curve"/>
      <point x="175" y="0" type="line"/>
      <point x="-29" y="0" type="line"/>
      <point x="153" y="730" type="line"/>
      <point x="363" y="754" type="line"/>
      <point x="283" y="432" type="line"/>
      <point x="287" y="432" type="line"/>
      <point x="362" y="517"/>
      <point x="413" y="549"/>
      <point x="469" y="549" type="curve" smooth="yes"/>
      <point x="536" y="549"/>
      <point x="572" y="511"/>
    </contour>
  </outline>
</glyph>
<glyph name="i" format="1">
  <advance width="286"/>
  <unicode hex="0069"/>
  <outline>
    <contour>
      <point x="365" y="730" type="line"/>
      <point x="331" y="593" type="line"/>
      <point x="117" y="593" type="line"/>
      <point x="151" y="730" type="line"/>
    </contour>
    <contour>
      <point x="313" y="542" type="line"/>
      <point x="178" y="0" type="line"/>
      <point x="-26" y="0" type="line"/>
      <point x="109" y="542" type="line"/>
    </contour>
  </outline>
</glyph>
<glyph name="j" format="1">
  <advance width="286"/>
  <unicode hex="006A"/>
  <outline>
    <contour>
      <point x="370" y="730" type="line"/>
      <point x="336" y="593" type="line"/>
      <point x="122" y="593" type="line"/>
      <point x="156" y="730" type="line"/>
    </contour>
    <contour>
      <point x="318" y="542" type="line"/>
      <point x="180" y="-12" type="line" smooth="yes"/>
      <point x="146" y="-148"/>
      <point x="69" y="-190"/>
      <point x="-47" y="-190" type="curve" smooth="yes"/>
      <point x="-105" y="-190"/>
      <point x="-149" y="-183"/>
      <point x="-183" y="-172" type="curve"/>
      <point x="-154" y="-55" type="line"/>
      <point x="-134" y="-62"/>
      <point x="-117" y="-65"/>
      <point x="-98" y="-65" type="curve" smooth="yes"/>
      <point x="-59" y="-65"/>
      <point x="-33" y="-48"/>
      <point x="-20" y="3" type="curve" smooth="yes"/>
      <point x="114" y="542" type="line"/>
    </contour>
  </outline>
</glyph>
<glyph name="m" format="1">
  <advance width="857"/>
  <unicode hex="006D"/>
  <outline>
    <contour>
      <point x="861" y="445" type="curve" smooth="yes"/>
      <point x="861" y="428"/>
      <point x="858" y="408"/>
      <point x="853" y="386" type="curve" smooth="yes"/>
      <point x="757" y="0" type="line"/>
      <point x="553" y="0" type="line"/>
      <point x="637" y="335" type="line" smooth="yes"/>
      <point x="640" y="347"/>
      <point x="641" y="357"/>
      <point x="641" y="366" type="curve" smooth="yes"/>
      <point x="641" y="387"/>
      <point x="629" y="398"/>
      <point x="604" y="398" type="curve" smooth="yes"/>
      <point x="591" y="398"/>
      <point x="579" y="394"/>
      <point x="562" y="386" type="curve"/>
      <point x="466" y="0" type="line"/>
      <point x="262" y="0" type="line"/>
      <point x="346" y="335" type="line" smooth="yes"/>
      <point x="349" y="347"/>
      <point x="350" y="357"/>
      <point x="350" y="366" type="curve" smooth="yes"/>
      <point x="350" y="387"/>
      <point x="338" y="398"/>
      <point x="313" y="398" type="curve" smooth="yes"/>
      <point x="300" y="398"/>
      <point x="288" y="394"/>
      <point x="271" y="386" type="curve"/>
      <point x="175" y="0" type="line"/>
      <point x="-29" y="0" type="line"/>
      <point x="102" y="526" type="line"/>
      <point x="312" y="550" type="line"/>
      <point x="283" y="432" type="line"/>
      <point x="287" y="432" type="line"/>
      <point x="362" y="517"/>
      <point x="411" y="549"/>
      <point x="467" y="549" type="curve" smooth="yes"/>
      <point x="534" y="549"/>
      <point x="570" y="511"/>
      <point x="570" y="445" type="curve" smooth="yes"/>
      <point x="570" y="441"/>
      <point x="570" y="436"/>
      <point x="569" y="432" type="curve"/>
      <point x="576" y="432" type="line"/>
      <point x="651" y="517"/>
      <point x="702" y="549"/>
      <point x="758" y="549" type="curve" smooth="yes"/>
      <point x="825" y="549"/>
      <point x="861" y="511"/>
    </contour>
  </outline>
</glyph>
<glyph name="t" format="1">
  <advance width="457"/>
  <unicode hex="0074"/>
  <outline>
    <contour>
      <point x="492" y="540" type="line"/>
      <point x="459" y="406" type="line"/>
      <point x="325" y="406" type="line"/>
      <point x="277" y="214" type="line" smooth="yes"/>
      <point x="275" y="205"/>
      <point x="272" y="192"/>
      <point x="272" y="182" type="curve" smooth="yes"/>
      <point x="272" y="157"/>
      <point x="290" y="147"/>
      <point x="318" y="147" type="curve" smooth="yes"/>
      <point x="344" y="147"/>
      <point x="367" y="151"/>
      <point x="411" y="166" type="curve"/>
      <point x="375" y="19" type="line"/>
      <point x="314" y="-3"/>
      <point x="268" y="-10"/>
      <point x="205" y="-10" type="curve" smooth="yes"/>
      <point x="108" y="-10"/>
      <point x="59" y="33"/>
      <point x="59" y="110" type="curve" smooth="yes"/>
      <point x="59" y="127"/>
      <point x="62" y="153"/>
      <point x="67" y="174" type="curve" smooth="yes"/>
      <point x="125" y="406" type="line"/>
      <point x="37" y="406" type="line"/>
      <point x="70" y="540" type="line"/>
      <point x="158" y="540" type="line"/>
      <point x="199" y="704" type="line"/>
      <point x="405" y="728" type="line"/>
      <point x="358" y="540" type="line"/>
    </contour>
  </outline>
</glyph>
<glyph name="v" format="1">
  <advance width="576"/>
  <unicode hex="0076"/>
  <outline>
    <contour>
      <point x="638" y="542" type="line"/>
      <point x="331" y="-4" type="line"/>
      <point x="107" y="-4" type="line"/>
      <point x="72" y="542" type="line"/>
      <point x="275" y="542" type="line"/>
      <point x="270" y="203" type="line"/>
      <point x="433" y="542" type="line"/>
    </contour>
  </outline>
</glyph>
<glyph name="w" format="1">
  <advance width="862"/>
  <unicode hex="0077"/>
  <outline>
    <contour>
      <point x="921" y="542" type="line"/>
      <point x="643" y="-4" type="line"/>
      <point x="431" y="-4" type="line"/>
      <point x="440" y="300" type="line"/>
      <point x="297" y="-4" type="line"/>
      <point x="81" y="-4" type="line"/>
      <point x="75" y="542" type="line"/>
      <point x="278" y="542" type="line"/>
      <point x="247" y="218" type="line"/>
      <point x="398" y="542" type="line"/>
      <point x="596" y="542" type="line"/>
      <point x="585" y="218" type="line"/>
      <point x="716" y="542" type="line"/>
    </contour>
  </outline>
</glyph>
<glyph name="x" format="1">
  <advance width="570"/>
  <unicode hex="0078"/>
  <outline>
    <contour>
      <point x="626" y="542" type="line"/>
      <point x="388" y="278" type="line"/>
      <point x="496" y="0" type="line"/>
      <point x="287" y="0" type="line"/>
      <point x="247" y="128" type="line"/>
      <point x="145" y="0" type="line"/>
      <point x="-62" y="0" type="line"/>
      <point x="183" y="272" type="line"/>
      <point x="78" y="542" type="line"/>
      <point x="287" y="542" type="line"/>
      <point x="323" y="421" type="line"/>
      <point x="419" y="542" type="line"/>
    </contour>
  </outline>
</glyph>
<glyph name="z" format="1">
  <advance width="481"/>
  <unicode hex="007A"/>
  <outline>
    <contour>
      <point x="528" y="542" type="line"/>
      <point x="498" y="423" type="line"/>
      <point x="217" y="134" type="line"/>
      <point x="426" y="134" type="line"/>
      <point x="392" y="0" type="line"/>
      <point x="-47" y="0" type="line"/>
      <point x="-17" y="119" type="line"/>
      <point x="264" y="408" type="line"/>
      <point x="70" y="408" type="line"/>
      <point x="104" y="542" type="line"/>
    </contour>
  </outline>
</glyph>
<glyph name="braceleft" format="1">
  <advance width="480"/>
  <unicode hex="007B"/>
  <outline>
    <contour>
      <point x="572" y="720" type="line"/>
      <point x="553" y="645" type="line"/>
      <point x="473" y="645" type="line" smooth="yes"/>
      <point x="421" y="645"/>
      <point x="397" y="628"/>
      <point x="387" y="587" type="curve" smooth="yes"/>
      <point x="378" y="552"/>
      <point x="385" y="494"/>
      <point x="373" y="447" type="curve" smooth="yes"/>
      <point x="352" y="366"/>
      <point x="298" y="338"/>
      <point x="237" y="324" type="curve"/>
      <point x="235" y="316" type="line"/>
      <point x="293" y="296"/>
      <point x="314" y="273"/>
      <point x="314" y="228" type="curve" smooth="yes"/>
      <point x="314" y="164"/>
      <point x="253" y="82"/>
      <point x="253" y="37" type="curve" smooth="yes"/>
      <point x="253" y="11"/>
      <point x="270" y="-5"/>
      <point x="311" y="-5" type="curve" smooth="yes"/>
      <point x="391" y="-5" type="line"/>
      <point x="372" y="-80" type="line"/>
      <point x="191" y="-80" type="line" smooth="yes"/>
      <point x="90" y="-80"/>
      <point x="59" y="-42"/>
      <point x="59" y="11" type="curve" smooth="yes"/>
      <point x="59" y="82"/>
      <point x="123" y="154"/>
      <point x="123" y="213" type="curve" smooth="yes"/>
      <point x="123" y="260"/>
      <point x="87" y="283"/>
      <point x="12" y="283" type="curve"/>
      <point x="30" y="357" type="line"/>
      <point x="105" y="357"/>
      <point x="167" y="381"/>
      <point x="185" y="452" type="curve" smooth="yes"/>
      <point x="196" y="497"/>
      <point x="191" y="556"/>
      <point x="201" y="597" type="curve" smooth="yes"/>
      <point x="222" y="682"/>
      <point x="281" y="720"/>
      <point x="381" y="720" type="curve" smooth="yes"/>
    </contour>
  </outline>
</glyph>
<glyph name="exclamdown" format="1">
  <advance width="306"/>
  <unicode hex="00A1"/>
  <outline>
    <contour>
      <point x="342" y="622" type="curve" smooth="yes"/>
      <point x="342" y="562"/>
      <point x="297" y="517"/>
      <point x="237" y="517" type="curve" smooth="yes"/>
      <point x="177" y="517"/>
      <point x="132" y="562"/>
      <point x="132" y="622" type="curve" smooth="yes"/>
      <point x="132" y="682"/>
      <point x="177" y="727"/>
      <point x="237" y="727" type="curve" smooth="yes"/>
      <point x="297" y="727"/>
      <point x="342" y="682"/>
    </contour>
    <contour>
      <point x="265" y="467" type="line"/>
      <point x="203" y="0" type="line"/>
      <point x="-39" y="0" type="line"/>
      <point x="143" y="467" type="line"/>
    </contour>
  </outline>
</glyph>
<glyph name="cent" format="1">
  <advance width="525"/>
  <unicode hex="00A2"/>
  <outline>
    <contour>
      <point x="622" y="637" type="line"/>
      <point x="215" y="122" type="line"/>
      <point x="223" y="118"/>
      <point x="234" y="116"/>
      <point x="246" y="116" type="curve" smooth="yes"/>
      <point x="275" y="116"/>
      <point x="299" y="133"/>
      <point x="331" y="198" type="curve"/>
      <point x="481" y="159" type="line"/>
      <point x="435" y="55"/>
      <point x="359" y="-10"/>
      <point x="227" y="-10" type="curve" smooth="yes"/>
      <point x="187" y="-10"/>
      <point x="153" y="-5"/>
      <point x="123" y="6" type="curve"/>
      <point x="43" y="-95" type="line"/>
      <point x="-68" y="-95" type="line"/>
      <point x="55" y="52" type="line"/>
      <point x="27" y="84"/>
      <point x="12" y="129"/>
      <point x="12" y="186" type="curve" smooth="yes"/>
      <point x="12" y="188" type="line" smooth="yes"/>
      <point x="12" y="215"/>
      <point x="19" y="257"/>
      <point x="28" y="294" type="curve" smooth="yes"/>
      <point x="71" y="464"/>
      <point x="163" y="552"/>
      <point x="322" y="552" type="curve" smooth="yes"/>
      <point x="365" y="552"/>
      <point x="398" y="545"/>
      <point x="432" y="529" type="curve"/>
      <point x="511" y="637" type="line"/>
    </contour>
    <contour>
      <point x="349" y="416" type="line"/>
      <point x="339" y="423"/>
      <point x="327" y="426"/>
      <point x="312" y="426" type="curve" smooth="yes"/>
      <point x="274" y="426"/>
      <point x="240" y="384"/>
      <point x="210" y="273" type="curve" smooth="yes"/>
      <point x="202" y="245"/>
      <point x="197" y="222"/>
      <point x="193" y="203" type="curve"/>
    </contour>
  </outline>
</glyph>
<glyph name="section" format="1">
  <advance width="618"/>
  <unicode hex="00A7"/>
  <outline>
    <contour>
      <point x="654" y="648" type="curve"/>
      <point x="582" y="536" type="line"/>
      <point x="513" y="578"/>
      <point x="422" y="606"/>
      <point x="358" y="606" type="curve" smooth="yes"/>
      <point x="325" y="606"/>
      <point x="310" y="597"/>
      <point x="310" y="583" type="curve" smooth="yes"/>
      <point x="310" y="566"/>
      <point x="324" y="557"/>
      <point x="419" y="527" type="curve" smooth="yes"/>
      <point x="587" y="474"/>
      <point x="621" y="433"/>
      <point x="621" y="375" type="curve" smooth="yes"/>
      <point x="621" y="302"/>
      <point x="555" y="253"/>
      <point x="446" y="251" type="curve"/>
      <point x="444" y="245" type="line"/>
      <point x="487" y="220"/>
      <point x="515" y="188"/>
      <point x="515" y="135" type="curve" smooth="yes"/>
      <point x="515" y="47"/>
      <point x="449" y="-12"/>
      <point x="300" y="-12" type="curve" smooth="yes"/>
      <point x="187" y="-12"/>
      <point x="84" y="20"/>
      <point x="6" y="72" type="curve"/>
      <point x="78" y="184" type="line"/>
      <point x="147" y="142"/>
      <point x="238" y="114"/>
      <point x="302" y="114" type="curve" smooth="yes"/>
      <point x="335" y="114"/>
      <point x="350" y="123"/>
      <point x="350" y="137" type="curve" smooth="yes"/>
      <point x="350" y="154"/>
      <point x="336" y="163"/>
      <point x="241" y="193" type="curve" smooth="yes"/>
      <point x="73" y="246"/>
      <point x="39" y="287"/>
      <point x="39" y="345" type="curve" smooth="yes"/>
      <point x="39" y="418"/>
      <point x="105" y="467"/>
      <point x="214" y="469" type="curve"/>
      <point x="216" y="475" type="line"/>
      <point x="173" y="500"/>
      <point x="145" y="532"/>
      <point x="145" y="585" type="curve" smooth="yes"/>
      <point x="145" y="673"/>
      <point x="211" y="732"/>
      <point x="360" y="732" type="curve" smooth="yes"/>
      <point x="473" y="732"/>
      <point x="576" y="700"/>
    </contour>
    <contour>
      <point x="469" y="338" type="curve" smooth="yes"/>
      <point x="469" y="356"/>
      <point x="451" y="373"/>
      <point x="392" y="397" type="curve" smooth="yes"/>
      <point x="359" y="410"/>
      <point x="308" y="423"/>
      <point x="271" y="423" type="curve" smooth="yes"/>
      <point x="215" y="423"/>
      <point x="191" y="407"/>
      <point x="191" y="382" type="curve" smooth="yes"/>
      <point x="191" y="364"/>
      <point x="209" y="347"/>
      <point x="268" y="323" type="curve" smooth="yes"/>
      <point x="301" y="310"/>
      <point x="352" y="297"/>
      <point x="389" y="297" type="curve" smooth="yes"/>
      <point x="445" y="297"/>
      <point x="469" y="313"/>
    </contour>
  </outline>
</glyph>
<glyph name="dieresis" format="1">
  <advance width="500"/>
  <unicode hex="00A8"/>
  <outline>
    <contour>
      <point x="550" y="743" type="line"/>
      <point x="512" y="592" type="line"/>
      <point x="363" y="592" type="line"/>
      <point x="401" y="743" type="line"/>
    </contour>
    <contour>
      <point x="335" y="743" type="line"/>
      <point x="297" y="592" type="line"/>
      <point x="148" y="592" type="line"/>
      <point x="186" y="743" type="line"/>
    </contour>
  </outline>
</glyph>
<glyph name="ordfeminine" format="1">
  <advance width="420"/>
  <unicode hex="00AA"/>
  <outline>
    <contour>
      <point x="440" y="637" type="curve" smooth="yes"/>
      <point x="440" y="623"/>
      <point x="438" y="606"/>
      <point x="434" y="589" type="curve" smooth="yes"/>
      <point x="395" y="434" type="line" smooth="yes"/>
      <point x="394" y="428"/>
      <point x="392" y="422"/>
      <point x="392" y="418" type="curve" smooth="yes"/>
      <point x="392" y="407"/>
      <point x="400" y="403"/>
      <point x="418" y="401" type="curve"/>
      <point x="406" y="355" type="line"/>
      <point x="312" y="355"/>
      <point x="278" y="371"/>
      <point x="270" y="403" type="curve"/>
      <point x="231" y="371"/>
      <point x="199" y="355"/>
      <point x="158" y="355" type="curve" smooth="yes"/>
      <point x="110" y="355"/>
      <point x="80" y="383"/>
      <point x="80" y="432" type="curve" smooth="yes"/>
      <point x="80" y="504"/>
      <point x="136" y="564"/>
      <point x="304" y="574" type="curve"/>
      <point x="309" y="593" type="line" smooth="yes"/>
      <point x="310" y="598"/>
      <point x="311" y="606"/>
      <point x="311" y="610" type="curve" smooth="yes"/>
      <point x="311" y="625"/>
      <point x="300" y="635"/>
      <point x="280" y="635" type="curve" smooth="yes"/>
      <point x="250" y="635"/>
      <point x="220" y="627"/>
      <point x="172" y="606" type="curve"/>
      <point x="152" y="685" type="line"/>
      <point x="210" y="712"/>
      <point x="263" y="725"/>
      <point x="318" y="725" type="curve" smooth="yes"/>
      <point x="400" y="725"/>
      <point x="440" y="693"/>
    </contour>
    <contour>
      <point x="390" y="303" type="line"/>
      <point x="373" y="236" type="line"/>
      <point x="32" y="236" type="line"/>
      <point x="49" y="303" type="line"/>
    </contour>
    <contour>
      <point x="293" y="527" type="line"/>
      <point x="228" y="518"/>
      <point x="208" y="491"/>
      <point x="208" y="464" type="curve" smooth="yes"/>
      <point x="208" y="444"/>
      <point x="218" y="432"/>
      <point x="243" y="432" type="curve" smooth="yes"/>
      <point x="251" y="432"/>
      <point x="260" y="435"/>
      <point x="271" y="440" type="curve"/>
    </contour>
  </outline>
</glyph>
<glyph name="guillemotleft" format="1">
  <advance width="540"/>
  <unicode hex="00AB"/>
  <outline>
    <contour>
      <point x="566" y="477" type="line"/>
      <point x="448" y="271" type="line"/>
      <point x="464" y="65" type="line"/>
      <point x="367" y="65" type="line"/>
      <point x="246" y="271" type="line"/>
      <point x="455" y="477" type="line"/>
    </contour>
    <contour>
      <point x="330" y="477" type="line"/>
      <point x="212" y="271" type="line"/>
      <point x="228" y="65" type="line"/>
      <point x="131" y="65" type="line"/>
      <point x="10" y="271" type="line"/>
      <point x="219" y="477" type="line"/>
    </contour>
  </outline>
</glyph>
<glyph name="periodcentered" format="1">
  <advance width="268"/>
  <unicode hex="00B7"/>
  <outline>
    <contour>
      <point x="245" y="278" type="curve" smooth="yes"/>
      <point x="245" y="215"/>
      <point x="198" y="168"/>
      <point x="135" y="168" type="curve" smooth="yes"/>
      <point x="72" y="168"/>
      <point x="25" y="215"/>
      <point x="25" y="278" type="curve" smooth="yes"/>
      <point x="25" y="341"/>
      <point x="72" y="388"/>
      <point x="135" y="388" type="curve" smooth="yes"/>
      <point x="198" y="388"/>
      <point x="245" y="341"/>
    </contour>
  </outline>
</glyph>
<glyph name="cedilla" format="1">
  <advance width="500"/>
  <unicode hex="00B8"/>
  <outline>
    <contour>
      <point x="309" y="-98" type="curve" smooth="yes"/>
      <point x="309" y="-162"/>
      <point x="220" y="-191"/>
      <point x="105" y="-191" type="curve" smooth="yes"/>
      <point x="65" y="-191"/>
      <point x="19" y="-186"/>
      <point x="-8" y="-183" type="curve"/>
      <point x="2" y="-148" type="line"/>
      <point x="32" y="-151"/>
      <point x="66" y="-154"/>
      <point x="92" y="-154" type="curve" smooth="yes"/>
      <point x="159" y="-154"/>
      <point x="192" y="-142"/>
      <point x="192" y="-122" type="curve" smooth="yes"/>
      <point x="192" y="-110"/>
      <point x="181" y="-101"/>
      <point x="154" y="-101" type="curve" smooth="yes"/>
      <point x="139" y="-101"/>
      <point x="125" y="-103"/>
      <point x="105" y="-108" type="curve"/>
      <point x="71" y="-83" type="line"/>
      <point x="170" y="0" type="line"/>
      <point x="229" y="0" type="line"/>
      <point x="175" y="-41" type="line"/>
      <point x="186" y="-40"/>
      <point x="200" y="-39"/>
      <point x="212" y="-39" type="curve" smooth="yes"/>
      <point x="281" y="-39"/>
      <point x="309" y="-61"/>
    </contour>
  </outline>
</glyph>
<glyph name="ordmasculine" format="1">
  <advance width="420"/>
  <unicode hex="00BA"/>
  <outline>
    <contour>
      <point x="441" y="577" type="curve" smooth="yes"/>
      <point x="441" y="472"/>
      <point x="378" y="350"/>
      <point x="251" y="350" type="curve" smooth="yes"/>
      <point x="150" y="350"/>
      <point x="90" y="393"/>
      <point x="90" y="500" type="curve" smooth="yes"/>
      <point x="90" y="605"/>
      <point x="153" y="727"/>
      <point x="280" y="727" type="curve" smooth="yes"/>
      <point x="381" y="727"/>
      <point x="441" y="684"/>
    </contour>
    <contour>
      <point x="384" y="303" type="line"/>
      <point x="367" y="236" type="line"/>
      <point x="35" y="236" type="line"/>
      <point x="52" y="303" type="line"/>
    </contour>
    <contour>
      <point x="311" y="597" type="curve" smooth="yes"/>
      <point x="311" y="633"/>
      <point x="302" y="647"/>
      <point x="284" y="647" type="curve" smooth="yes"/>
      <point x="242" y="647"/>
      <point x="220" y="529"/>
      <point x="220" y="480" type="curve" smooth="yes"/>
      <point x="220" y="444"/>
      <point x="229" y="430"/>
      <point x="247" y="430" type="curve" smooth="yes"/>
      <point x="289" y="430"/>
      <point x="311" y="548"/>
    </contour>
  </outline>
</glyph>
<glyph name="questiondown" format="1">
  <advance width="532"/>
  <unicode hex="00BF"/>
  <outline>
    <contour>
      <point x="487" y="627" type="curve" smooth="yes"/>
      <point x="487" y="567"/>
      <point x="442" y="522"/>
      <point x="382" y="522" type="curve" smooth="yes"/>
      <point x="322" y="522"/>
      <point x="277" y="567"/>
      <point x="277" y="627" type="curve" smooth="yes"/>
      <point x="277" y="687"/>
      <point x="322" y="732"/>
      <point x="382" y="732" type="curve" smooth="yes"/>
      <point x="442" y="732"/>
      <point x="487" y="687"/>
    </contour>
    <contour>
      <point x="503" y="162" type="line"/>
      <point x="431" y="47"/>
      <point x="338" y="-7"/>
      <point x="227" y="-7" type="curve" smooth="yes"/>
      <point x="92" y="-7"/>
      <point x="-2" y="61"/>
      <point x="-2" y="166" type="curve" smooth="yes"/>
      <point x="-2" y="278"/>
      <point x="63" y="342"/>
      <point x="166" y="390" type="curve" smooth="yes"/>
      <point x="237" y="423"/>
      <point x="262" y="438"/>
      <point x="278" y="472" type="curve"/>
      <point x="412" y="472" type="line"/>
      <point x="408" y="378"/>
      <point x="376" y="335"/>
      <point x="286" y="288" type="curve" smooth="yes"/>
      <point x="233" y="260"/>
      <point x="201" y="231"/>
      <point x="201" y="196" type="curve" smooth="yes"/>
      <point x="201" y="166"/>
      <point x="217" y="148"/>
      <point x="248" y="148" type="curve" smooth="yes"/>
      <point x="279" y="148"/>
      <point x="316" y="173"/>
      <point x="366" y="245" type="curve"/>
    </contour>
  </outline>
</glyph>
<glyph name="Ccedilla" format="1">
  <advance width="624"/>
  <unicode hex="00C7"/>
  <outline>
    <contour>
      <point x="650" y="466" type="curve"/>
      <point x="437" y="429" type="line"/>
      <point x="450" y="530"/>
      <point x="435" y="570"/>
      <point x="389" y="570" type="curve" smooth="yes"/>
      <point x="347" y="570"/>
      <point x="317" y="514"/>
      <point x="283" y="390" type="curve" smooth="yes"/>
      <point x="261" y="311"/>
      <point x="254" y="257"/>
      <point x="254" y="221" type="curve" smooth="yes"/>
      <point x="254" y="217" type="line" smooth="yes"/>
      <point x="254" y="176"/>
      <point x="276" y="150"/>
      <point x="307" y="150" type="curve" smooth="yes"/>
      <point x="348" y="150"/>
      <point x="374" y="184"/>
      <point x="407" y="281" type="curve"/>
      <point x="599" y="225" type="line"/>
      <point x="533" y="60"/>
      <point x="451" y="-12"/>
      <point x="288" y="-12" type="curve"/>
      <point x="250" y="-41" type="line"/>
      <point x="261" y="-40"/>
      <point x="275" y="-39"/>
      <point x="287" y="-39" type="curve" smooth="yes"/>
      <point x="356" y="-39"/>
      <point x="384" y="-61"/>
      <point x="384" y="-98" type="curve" smooth="yes"/>
      <point x="384" y="-162"/>
      <point x="295" y="-191"/>
      <point x="180" y="-191" type="curve" smooth="yes"/>
      <point x="140" y="-191"/>
      <point x="94" y="-186"/>
      <point x="67" y="-183" type="curve"/>
      <point x="77" y="-148" type="line"/>
      <point x="107" y="-151"/>
      <point x="141" y="-154"/>
      <point x="167" y="-154" type="curve" smooth="yes"/>
      <point x="234" y="-154"/>
      <point x="267" y="-142"/>
      <point x="267" y="-122" type="curve" smooth="yes"/>
      <point x="267" y="-110"/>
      <point x="256" y="-101"/>
      <point x="229" y="-101" type="curve" smooth="yes"/>
      <point x="214" y="-101"/>
      <point x="200" y="-103"/>
      <point x="180" y="-108" type="curve"/>
      <point x="146" y="-83" type="line"/>
      <point x="235" y="-8" type="line"/>
      <point x="116" y="10"/>
      <point x="38" y="90"/>
      <point x="38" y="226" type="curve" smooth="yes"/>
      <point x="38" y="231" type="line" smooth="yes"/>
      <point x="38" y="265"/>
      <point x="45" y="333"/>
      <point x="54" y="373" type="curve" smooth="yes"/>
      <point x="111" y="628"/>
      <point x="219" y="732"/>
      <point x="408" y="732" type="curve" smooth="yes"/>
      <point x="594" y="732"/>
      <point x="668" y="624"/>
    </contour>
  </outline>
</glyph>
<glyph name="multiply" format="1">
  <advance width="600"/>
  <unicode hex="00D7"/>
  <outline>
    <contour>
      <point x="590" y="207" type="line"/>
      <point x="469" y="86" type="line"/>
      <point x="321" y="241" type="line"/>
      <point x="173" y="86" type="line"/>
      <point x="52" y="207" type="line"/>
      <point x="207" y="355" type="line"/>
      <point x="52" y="503" type="line"/>
      <point x="173" y="624" type="line"/>
      <point x="321" y="469" type="line"/>
      <point x="469" y="624" type="line"/>
      <point x="590" y="503" type="line"/>
      <point x="435" y="355" type="line"/>
    </contour>
  </outline>
</glyph>
<glyph name="Oslash" format="1">
  <advance width="660"/>
  <unicode hex="00D8"/>
  <outline>
    <contour>
      <point x="751" y="817" type="line"/>
      <point x="618" y="648" type="line"/>
      <point x="649" y="610"/>
      <point x="666" y="558"/>
      <point x="666" y="494" type="curve" smooth="yes"/>
      <point x="666" y="489" type="line" smooth="yes"/>
      <point x="666" y="455"/>
      <point x="659" y="387"/>
      <point x="650" y="347" type="curve" smooth="yes"/>
      <point x="593" y="92"/>
      <point x="486" y="-12"/>
      <point x="290" y="-12" type="curve" smooth="yes"/>
      <point x="237" y="-12"/>
      <point x="190" y="-2"/>
      <point x="152" y="18" type="curve"/>
      <point x="71" y="-95" type="line"/>
      <point x="-46" y="-95" type="line"/>
      <point x="86" y="72" type="line"/>
      <point x="55" y="110"/>
      <point x="38" y="162"/>
      <point x="38" y="226" type="curve" smooth="yes"/>
      <point x="38" y="231" type="line" smooth="yes"/>
      <point x="38" y="265"/>
      <point x="45" y="333"/>
      <point x="54" y="373" type="curve" smooth="yes"/>
      <point x="111" y="628"/>
      <point x="218" y="732"/>
      <point x="414" y="732" type="curve" smooth="yes"/>
      <point x="467" y="732"/>
      <point x="514" y="722"/>
      <point x="552" y="702" type="curve"/>
      <point x="634" y="817" type="line"/>
    </contour>
    <contour>
      <point x="451" y="559" type="line"/>
      <point x="440" y="572"/>
      <point x="423" y="578"/>
      <point x="402" y="578" type="curve" smooth="yes"/>
      <point x="346" y="578"/>
      <point x="310" y="540"/>
      <point x="271" y="398" type="curve" smooth="yes"/>
      <point x="254" y="336"/>
      <point x="245" y="294"/>
      <point x="240" y="262" type="curve"/>
    </contour>
    <contour>
      <point x="464" y="457" type="curve"/>
      <point x="253" y="161" type="line"/>
      <point x="265" y="148"/>
      <point x="281" y="142"/>
      <point x="302" y="142" type="curve" smooth="yes"/>
      <point x="358" y="142"/>
      <point x="394" y="180"/>
      <point x="433" y="322" type="curve" smooth="yes"/>
      <point x="450" y="383"/>
      <point x="459" y="426"/>
    </contour>
  </outline>
</glyph>
<glyph name="germandbls" format="1">
  <advance width="629"/>
  <unicode hex="00DF"/>
  <outline>
    <contour>
      <point x="641" y="596" type="curve" smooth="yes"/>
      <point x="641" y="493"/>
      <point x="563" y="440"/>
      <point x="494" y="412" type="curve"/>
      <point x="492" y="406" type="line"/>
      <point x="554" y="368"/>
      <point x="599" y="307"/>
      <point x="599" y="223" type="curve" smooth="yes"/>
      <point x="599" y="62"/>
      <point x="484" y="-5"/>
      <point x="334" y="-5" type="curve" smooth="yes"/>
      <point x="280" y="-5"/>
      <point x="249" y="-2"/>
      <point x="221" y="4" type="curve"/>
      <point x="265" y="133" type="line"/>
      <point x="280" y="130"/>
      <point x="291" y="128"/>
      <point x="304" y="128" type="curve" smooth="yes"/>
      <point x="362" y="128"/>
      <point x="397" y="166"/>
      <point x="397" y="230" type="curve" smooth="yes"/>
      <point x="397" y="283"/>
      <point x="371" y="320"/>
      <point x="311" y="348" type="curve"/>
      <point x="342" y="469" type="line"/>
      <point x="398" y="480"/>
      <point x="438" y="519"/>
      <point x="438" y="575" type="curve" smooth="yes"/>
      <point x="438" y="607"/>
      <point x="420" y="628"/>
      <point x="386" y="628" type="curve" smooth="yes"/>
      <point x="344" y="628"/>
      <point x="323" y="598"/>
      <point x="310" y="544" type="curve" smooth="yes"/>
      <point x="175" y="0" type="line"/>
      <point x="-29" y="0" type="line"/>
      <point x="108" y="554" type="line" smooth="yes"/>
      <point x="145" y="703"/>
      <point x="243" y="759"/>
      <point x="415" y="759" type="curve" smooth="yes"/>
      <point x="560" y="759"/>
      <point x="641" y="693"/>
    </contour>
  </outline>
</glyph>
<glyph name="ae" format="1">
  <advance width="802"/>
  <unicode hex="00E6"/>
  <outline>
    <contour>
      <point x="792" y="372" type="curve" smooth="yes"/>
      <point x="792" y="328"/>
      <point x="783" y="282"/>
      <point x="766" y="222" type="curve"/>
      <point x="481" y="222" type="line"/>
      <point x="481" y="213"/>
      <point x="480" y="206"/>
      <point x="480" y="200" type="curve" smooth="yes"/>
      <point x="480" y="198" type="line" smooth="yes"/>
      <point x="480" y="146"/>
      <point x="511" y="129"/>
      <point x="567" y="129" type="curve" smooth="yes"/>
      <point x="601" y="129"/>
      <point x="657" y="139"/>
      <point x="720" y="157" type="curve"/>
      <point x="732" y="26" type="line"/>
      <point x="653" y="3"/>
      <point x="603" y="-7"/>
      <point x="520" y="-7" type="curve" smooth="yes"/>
      <point x="421" y="-7"/>
      <point x="358" y="19"/>
      <point x="324" y="70" type="curve"/>
      <point x="315" y="70" type="line"/>
      <point x="242" y="18"/>
      <point x="184" y="-5"/>
      <point x="107" y="-5" type="curve" smooth="yes"/>
      <point x="29" y="-5"/>
      <point x="-17" y="36"/>
      <point x="-17" y="109" type="curve" smooth="yes"/>
      <point x="-17" y="217"/>
      <point x="67" y="306"/>
      <point x="318" y="321" type="curve"/>
      <point x="325" y="350" type="line" smooth="yes"/>
      <point x="327" y="358"/>
      <point x="328" y="369"/>
      <point x="328" y="375" type="curve" smooth="yes"/>
      <point x="328" y="397"/>
      <point x="312" y="413"/>
      <point x="281" y="413" type="curve" smooth="yes"/>
      <point x="237" y="413"/>
      <point x="192" y="400"/>
      <point x="121" y="370" type="curve"/>
      <point x="91" y="487" type="line"/>
      <point x="177" y="528"/>
      <point x="249" y="548"/>
      <point x="324" y="548" type="curve" smooth="yes"/>
      <point x="393" y="548"/>
      <point x="428" y="527"/>
      <point x="444" y="489" type="curve"/>
      <point x="453" y="489" type="line"/>
      <point x="496" y="529"/>
      <point x="543" y="552"/>
      <point x="605" y="552" type="curve" smooth="yes"/>
      <point x="739" y="552"/>
      <point x="792" y="487"/>
    </contour>
    <contour>
      <point x="614" y="386" type="curve" smooth="yes"/>
      <point x="614" y="421"/>
      <point x="605" y="438"/>
      <point x="580" y="438" type="curve" smooth="yes"/>
      <point x="546" y="438"/>
      <point x="517" y="376"/>
      <point x="496" y="297" type="curve"/>
      <point x="598" y="297" type="line"/>
      <point x="608" y="333"/>
      <point x="614" y="367"/>
    </contour>
    <contour>
      <point x="302" y="253" type="curve"/>
      <point x="204" y="238"/>
      <point x="174" y="197"/>
      <point x="174" y="158" type="curve" smooth="yes"/>
      <point x="174" y="127"/>
      <point x="189" y="110"/>
      <point x="226" y="110" type="curve" smooth="yes"/>
      <point x="249" y="110"/>
      <point x="270" y="117"/>
      <point x="299" y="133" type="curve"/>
      <point x="296" y="150"/>
      <point x="295" y="167"/>
      <point x="295" y="186" type="curve" smooth="yes"/>
      <point x="295" y="188" type="line" smooth="yes"/>
      <point x="295" y="205"/>
      <point x="298" y="228"/>
    </contour>
  </outline>
</glyph>
<glyph name="ccedilla" format="1">
  <advance width="515"/>
  <unicode hex="00E7"/>
  <outline>
    <contour>
      <point x="521" y="340" type="curve"/>
      <point x="327" y="321" type="line"/>
      <point x="340" y="393"/>
      <point x="338" y="423"/>
      <point x="308" y="423" type="curve" smooth="yes"/>
      <point x="276" y="423"/>
      <point x="257" y="375"/>
      <point x="229" y="271" type="curve" smooth="yes"/>
      <point x="217" y="227"/>
      <point x="211" y="186"/>
      <point x="211" y="160" type="curve" smooth="yes"/>
      <point x="211" y="158" type="line" smooth="yes"/>
      <point x="211" y="134"/>
      <point x="221" y="118"/>
      <point x="239" y="118" type="curve" smooth="yes"/>
      <point x="262" y="118"/>
      <point x="281" y="141"/>
      <point x="307" y="204" type="curve"/>
      <point x="481" y="159" type="line"/>
      <point x="435" y="55"/>
      <point x="359" y="-10"/>
      <point x="227" y="-10" type="curve"/>
      <point x="186" y="-41" type="line"/>
      <point x="197" y="-40"/>
      <point x="211" y="-39"/>
      <point x="223" y="-39" type="curve" smooth="yes"/>
      <point x="292" y="-39"/>
      <point x="320" y="-61"/>
      <point x="320" y="-98" type="curve" smooth="yes"/>
      <point x="320" y="-162"/>
      <point x="231" y="-191"/>
      <point x="116" y="-191" type="curve" smooth="yes"/>
      <point x="76" y="-191"/>
      <point x="30" y="-186"/>
      <point x="3" y="-183" type="curve"/>
      <point x="13" y="-148" type="line"/>
      <point x="43" y="-151"/>
      <point x="77" y="-154"/>
      <point x="103" y="-154" type="curve" smooth="yes"/>
      <point x="170" y="-154"/>
      <point x="203" y="-142"/>
      <point x="203" y="-122" type="curve" smooth="yes"/>
      <point x="203" y="-110"/>
      <point x="192" y="-101"/>
      <point x="165" y="-101" type="curve" smooth="yes"/>
      <point x="150" y="-101"/>
      <point x="136" y="-103"/>
      <point x="116" y="-108" type="curve"/>
      <point x="82" y="-83" type="line"/>
      <point x="174" y="-6" type="line"/>
      <point x="70" y="9"/>
      <point x="12" y="73"/>
      <point x="12" y="186" type="curve" smooth="yes"/>
      <point x="12" y="188" type="line" smooth="yes"/>
      <point x="12" y="215"/>
      <point x="19" y="257"/>
      <point x="28" y="294" type="curve" smooth="yes"/>
      <point x="71" y="464"/>
      <point x="162" y="552"/>
      <point x="325" y="552" type="curve" smooth="yes"/>
      <point x="481" y="552"/>
      <point x="534" y="473"/>
    </contour>
  </outline>
</glyph>
<glyph name="oslash" format="1">
  <advance width="548"/>
  <unicode hex="00F8"/>
  <outline>
    <contour>
      <point x="605" y="637" type="line"/>
      <point x="490" y="493" type="line"/>
      <point x="520" y="461"/>
      <point x="536" y="415"/>
      <point x="536" y="356" type="curve" smooth="yes"/>
      <point x="536" y="354" type="line" smooth="yes"/>
      <point x="536" y="327"/>
      <point x="529" y="285"/>
      <point x="520" y="248" type="curve" smooth="yes"/>
      <point x="477" y="78"/>
      <point x="386" y="-10"/>
      <point x="227" y="-10" type="curve" smooth="yes"/>
      <point x="187" y="-10"/>
      <point x="152" y="-4"/>
      <point x="123" y="7" type="curve"/>
      <point x="53" y="-95" type="line"/>
      <point x="-57" y="-95" type="line"/>
      <point x="58" y="48" type="line"/>
      <point x="28" y="81"/>
      <point x="12" y="127"/>
      <point x="12" y="186" type="curve" smooth="yes"/>
      <point x="12" y="188" type="line" smooth="yes"/>
      <point x="12" y="215"/>
      <point x="19" y="257"/>
      <point x="28" y="294" type="curve" smooth="yes"/>
      <point x="71" y="464"/>
      <point x="162" y="552"/>
      <point x="321" y="552" type="curve" smooth="yes"/>
      <point x="361" y="552"/>
      <point x="396" y="547"/>
      <point x="425" y="536" type="curve"/>
      <point x="495" y="637" type="line"/>
    </contour>
    <contour>
      <point x="348" y="425" type="line"/>
      <point x="340" y="435"/>
      <point x="329" y="440"/>
      <point x="315" y="440" type="curve" smooth="yes"/>
      <point x="270" y="440"/>
      <point x="244" y="400"/>
      <point x="215" y="301" type="curve" smooth="yes"/>
      <point x="204" y="263"/>
      <point x="196" y="227"/>
      <point x="191" y="199" type="curve"/>
    </contour>
    <contour>
      <point x="357" y="343" type="curve"/>
      <point x="200" y="116" type="line"/>
      <point x="208" y="107"/>
      <point x="219" y="102"/>
      <point x="233" y="102" type="curve" smooth="yes"/>
      <point x="278" y="102"/>
      <point x="304" y="142"/>
      <point x="333" y="241" type="curve" smooth="yes"/>
      <point x="344" y="279"/>
      <point x="352" y="315"/>
    </contour>
  </outline>
</glyph>
<glyph name="thorn" format="1">
  <advance width="567"/>
  <unicode hex="00FE"/>
  <outline>
    <contour>
      <point x="558" y="409" type="line" smooth="yes"/>
      <point x="558" y="209"/>
      <point x="451" y="-7"/>
      <point x="328" y="-7" type="curve" smooth="yes"/>
      <point x="270" y="-7"/>
      <point x="242" y="15"/>
      <point x="199" y="79" type="curve"/>
      <point x="195" y="79" type="line"/>
      <point x="128" y="-188" type="line"/>
      <point x="-76" y="-188" type="line"/>
      <point x="153" y="730" type="line"/>
      <point x="363" y="754" type="line"/>
      <point x="286" y="447" type="line"/>
      <point x="290" y="447" type="line"/>
      <point x="353" y="517"/>
      <point x="397" y="549"/>
      <point x="451" y="549" type="curve" smooth="yes"/>
      <point x="518" y="549"/>
      <point x="558" y="499"/>
      <point x="558" y="411" type="curve" smooth="yes"/>
    </contour>
    <contour>
      <point x="355" y="361" type="curve" smooth="yes"/>
      <point x="355" y="402"/>
      <point x="346" y="413"/>
      <point x="327" y="413" type="curve" smooth="yes"/>
      <point x="271" y="413"/>
      <point x="223" y="244"/>
      <point x="223" y="165" type="curve" smooth="yes"/>
      <point x="223" y="124"/>
      <point x="232" y="113"/>
      <point x="251" y="113" type="curve" smooth="yes"/>
      <point x="307" y="113"/>
      <point x="355" y="282"/>
    </contour>
  </outline>
</glyph>
<glyph name="dotlessi" format="1">
  <advance width="286"/>
  <unicode hex="0131"/>
  <outline>
    <contour>
      <point x="313" y="542" type="line"/>
      <point x="178" y="0" type="line"/>
      <point x="-26" y="0" type="line"/>
      <point x="109" y="542" type="line"/>
    </contour>
  </outline>
</glyph>
<glyph name="lslash" format="1">
  <advance width="366"/>
  <unicode hex="0142"/>
  <outline>
    <contour>
      <point x="416" y="530" type="line"/>
      <point x="376" y="370" type="line"/>
      <point x="299" y="343" type="line"/>
      <point x="214" y="0" type="line"/>
      <point x="18" y="0" type="line"/>
      <point x="84" y="266" type="line"/>
      <point x="8" y="239" type="line"/>
      <point x="47" y="399" type="line"/>
      <point x="124" y="426" type="line"/>
      <point x="200" y="730" type="line"/>
      <point x="401" y="754" type="line"/>
      <point x="339" y="502" type="line"/>
    </contour>
  </outline>
</glyph>
<glyph name="OE" format="1">
  <advance width="910"/>
  <unicode hex="0152"/>
  <outline>
    <contour>
      <point x="987" y="720" type="line"/>
      <point x="946" y="554" type="line"/>
      <point x="672" y="554" type="line"/>
      <point x="645" y="447" type="line"/>
      <point x="831" y="447" type="line"/>
      <point x="792" y="291" type="line"/>
      <point x="606" y="291" type="line"/>
      <point x="575" y="166" type="line"/>
      <point x="861" y="166" type="line"/>
      <point x="819" y="0" type="line"/>
      <point x="300" y="0" type="line" smooth="yes"/>
      <point x="125" y="0"/>
      <point x="32" y="75"/>
      <point x="32" y="230" type="curve" smooth="yes"/>
      <point x="32" y="234" type="line" smooth="yes"/>
      <point x="32" y="271"/>
      <point x="36" y="308"/>
      <point x="48" y="360" type="curve" smooth="yes"/>
      <point x="107" y="618"/>
      <point x="215" y="720"/>
      <point x="440" y="720" type="curve" smooth="yes"/>
    </contour>
    <contour>
      <point x="465" y="558" type="line"/>
      <point x="427" y="558" type="line" smooth="yes"/>
      <point x="348" y="558"/>
      <point x="312" y="511"/>
      <point x="272" y="360" type="curve" smooth="yes"/>
      <point x="262" y="322"/>
      <point x="257" y="281"/>
      <point x="257" y="249" type="curve" smooth="yes"/>
      <point x="257" y="243" type="line" smooth="yes"/>
      <point x="257" y="194"/>
      <point x="280" y="162"/>
      <point x="331" y="162" type="curve" smooth="yes"/>
      <point x="367" y="162" type="line"/>
    </contour>
  </outline>
</glyph>
<glyph name="oe" format="1">
  <advance width="826"/>
  <unicode hex="0153"/>
  <outline>
    <contour>
      <point x="816" y="372" type="curve" smooth="yes"/>
      <point x="816" y="328"/>
      <point x="807" y="282"/>
      <point x="790" y="222" type="curve"/>
      <point x="505" y="222" type="line"/>
      <point x="505" y="213"/>
      <point x="504" y="206"/>
      <point x="504" y="200" type="curve" smooth="yes"/>
      <point x="504" y="198" type="line" smooth="yes"/>
      <point x="504" y="146"/>
      <point x="535" y="129"/>
      <point x="591" y="129" type="curve" smooth="yes"/>
      <point x="625" y="129"/>
      <point x="681" y="139"/>
      <point x="744" y="157" type="curve"/>
      <point x="756" y="26" type="line"/>
      <point x="677" y="3"/>
      <point x="629" y="-7"/>
      <point x="554" y="-7" type="curve" smooth="yes"/>
      <point x="467" y="-7"/>
      <point x="419" y="19"/>
      <point x="396" y="76" type="curve"/>
      <point x="388" y="76" type="line"/>
      <point x="346" y="21"/>
      <point x="289" y="-10"/>
      <point x="207" y="-10" type="curve" smooth="yes"/>
      <point x="95" y="-10"/>
      <point x="12" y="57"/>
      <point x="12" y="186" type="curve" smooth="yes"/>
      <point x="12" y="188" type="line" smooth="yes"/>
      <point x="12" y="215"/>
      <point x="19" y="257"/>
      <point x="28" y="294" type="curve" smooth="yes"/>
      <point x="71" y="464"/>
      <point x="167" y="552"/>
      <point x="303" y="552" type="curve" smooth="yes"/>
      <point x="381" y="552"/>
      <point x="426" y="523"/>
      <point x="454" y="470" type="curve"/>
      <point x="461" y="470" type="line"/>
      <point x="507" y="524"/>
      <point x="553" y="552"/>
      <point x="633" y="552" type="curve" smooth="yes"/>
      <point x="758" y="552"/>
      <point x="816" y="487"/>
    </contour>
    <contour>
      <point x="638" y="386" type="curve" smooth="yes"/>
      <point x="638" y="421"/>
      <point x="629" y="438"/>
      <point x="604" y="438" type="curve" smooth="yes"/>
      <point x="570" y="438"/>
      <point x="541" y="376"/>
      <point x="520" y="297" type="curve"/>
      <point x="622" y="297" type="line"/>
      <point x="632" y="333"/>
      <point x="638" y="367"/>
    </contour>
    <contour>
      <point x="340" y="389" type="curve" smooth="yes"/>
      <point x="340" y="391" type="line" smooth="yes"/>
      <point x="340" y="424"/>
      <point x="331" y="434"/>
      <point x="309" y="434" type="curve" smooth="yes"/>
      <point x="276" y="434"/>
      <point x="257" y="380"/>
      <point x="229" y="271" type="curve" smooth="yes"/>
      <point x="214" y="213"/>
      <point x="208" y="175"/>
      <point x="208" y="153" type="curve" smooth="yes"/>
      <point x="208" y="151" type="line" smooth="yes"/>
      <point x="208" y="118"/>
      <point x="217" y="108"/>
      <point x="239" y="108" type="curve" smooth="yes"/>
      <point x="272" y="108"/>
      <point x="291" y="162"/>
      <point x="319" y="271" type="curve" smooth="yes"/>
      <point x="334" y="329"/>
      <point x="340" y="367"/>
    </contour>
  </outline>
</glyph>
<glyph name="florin" format="1">
  <advance width="500"/>
  <unicode hex="0192"/>
  <outline>
    <contour>
      <point x="567" y="702" type="curve"/>
      <point x="535" y="572" type="line"/>
      <point x="506" y="585"/>
      <point x="486" y="591"/>
      <point x="455" y="591" type="curve" smooth="yes"/>
      <point x="413" y="591"/>
      <point x="398" y="566"/>
      <point x="388" y="525" type="curve" smooth="yes"/>
      <point x="376" y="476" type="line"/>
      <point x="493" y="476" type="line"/>
      <point x="460" y="342" type="line"/>
      <point x="343" y="342" type="line"/>
      <point x="255" y="-12" type="line" smooth="yes"/>
      <point x="221" y="-148"/>
      <point x="144" y="-190"/>
      <point x="28" y="-190" type="curve" smooth="yes"/>
      <point x="-30" y="-190"/>
      <point x="-74" y="-183"/>
      <point x="-108" y="-172" type="curve"/>
      <point x="-79" y="-55" type="line"/>
      <point x="-59" y="-62"/>
      <point x="-42" y="-65"/>
      <point x="-23" y="-65" type="curve" smooth="yes"/>
      <point x="16" y="-65"/>
      <point x="42" y="-48"/>
      <point x="55" y="3" type="curve" smooth="yes"/>
      <point x="139" y="342" type="line"/>
      <point x="48" y="342" type="line"/>
      <point x="81" y="476" type="line"/>
      <point x="173" y="476" type="line"/>
      <point x="191" y="550" type="line" smooth="yes"/>
      <point x="221" y="675"/>
      <point x="288" y="726"/>
      <point x="405" y="726" type="curve" smooth="yes"/>
      <point x="474" y="726"/>
      <point x="515" y="720"/>
    </contour>
  </outline>
</glyph>
<glyph name="caron" format="1">
  <advance width="500"/>
  <unicode hex="02C7"/>
  <outline>
    <contour>
      <point x="546" y="763" type="line"/>
      <point x="397" y="592" type="line"/>
      <point x="253" y="592" type="line"/>
      <point x="188" y="763" type="line"/>
      <point x="277" y="763" type="line"/>
      <point x="345" y="694" type="line"/>
      <point x="447" y="763" type="line"/>
    </contour>
  </outline>
</glyph>
<glyph name="breve" format="1">
  <advance width="500"/>
  <unicode hex="02D8"/>
  <outline>
    <contour>
      <point x="528" y="763" type="line"/>
      <point x="500" y="655"/>
      <point x="445" y="589"/>
      <point x="329" y="589" type="curve" smooth="yes"/>
      <point x="233" y="589"/>
      <point x="189" y="633"/>
      <point x="189" y="707" type="curve" smooth="yes"/>
      <point x="189" y="724"/>
      <point x="192" y="743"/>
      <point x="196" y="763" type="curve"/>
      <point x="269" y="763" type="line"/>
      <point x="269" y="758"/>
      <point x="269" y="753"/>
      <point x="269" y="749" type="curve" smooth="yes"/>
      <point x="269" y="714"/>
      <point x="285" y="687"/>
      <point x="342" y="687" type="curve" smooth="yes"/>
      <point x="406" y="687"/>
      <point x="433" y="719"/>
      <point x="451" y="763" type="curve"/>
    </contour>
  </outline>
</glyph>
<glyph name="dotaccent" format="1">
  <advance width="500"/>
  <unicode hex="02D9"/>
  <outline>
    <contour>
      <point x="445" y="743" type="line"/>
      <point x="407" y="592" type="line"/>
      <point x="253" y="592" type="line"/>
      <point x="291" y="743" type="line"/>
    </contour>
  </outline>
</glyph>
<glyph name="ring" format="1">
  <advance width="500"/>
  <unicode hex="02DA"/>
  <outline>
    <contour>
      <point x="488" y="693" type="curve" smooth="yes"/>
      <point x="488" y="627"/>
      <point x="436" y="585"/>
      <point x="345" y="585" type="curve" smooth="yes"/>
      <point x="254" y="585"/>
      <point x="202" y="627"/>
      <point x="202" y="693" type="curve" smooth="yes"/>
      <point x="202" y="757"/>
      <point x="254" y="800"/>
      <point x="345" y="800" type="curve" smooth="yes"/>
      <point x="436" y="800"/>
      <point x="488" y="757"/>
    </contour>
    <contour>
      <point x="393" y="693" type="curve" smooth="yes"/>
      <point x="393" y="722"/>
      <point x="373" y="743"/>
      <point x="345" y="743" type="curve" smooth="yes"/>
      <point x="317" y="743"/>
      <point x="297" y="722"/>
      <point x="297" y="693" type="curve" smooth="yes"/>
      <point x="297" y="663"/>
      <point x="316" y="642"/>
      <point x="345" y="642" type="curve" smooth="yes"/>
      <point x="374" y="642"/>
      <point x="393" y="663"/>
    </contour>
  </outline>
</glyph>
<glyph name="ogonek" format="1">
  <advance width="500"/>
  <unicode hex="02DB"/>
  <outline>
    <contour>
      <point x="302" y="-158" type="line"/>
      <point x="251" y="-180"/>
      <point x="200" y="-190"/>
      <point x="144" y="-190" type="curve" smooth="yes"/>
      <point x="72" y="-190"/>
      <point x="36" y="-167"/>
      <point x="36" y="-127" type="curve" smooth="yes"/>
      <point x="36" y="-84"/>
      <point x="83" y="-36"/>
      <point x="177" y="0" type="curve"/>
      <point x="259" y="0" type="line"/>
      <point x="183" y="-46"/>
      <point x="167" y="-74"/>
      <point x="167" y="-96" type="curve" smooth="yes"/>
      <point x="167" y="-111"/>
      <point x="180" y="-122"/>
      <point x="209" y="-122" type="curve" smooth="yes"/>
      <point x="234" y="-122"/>
      <point x="256" y="-120"/>
      <point x="292" y="-111" type="curve"/>
    </contour>
  </outline>
</glyph>
<glyph name="endash" format="1">
  <advance width="500"/>
  <unicode hex="2013"/>
  <outline>
    <contour>
      <point x="496" y="376" type="line"/>
      <point x="454" y="210" type="line"/>
      <point x="14" y="210" type="line"/>
      <point x="56" y="376" type="line"/>
    </contour>
  </outline>
</glyph>
<glyph name="emdash" format="1">
  <advance width="1000"/>
  <unicode hex="2014"/>
  <outline>
    <contour>
      <point x="996" y="376" type="line"/>
      <point x="954" y="210" type="line"/>
      <point x="14" y="210" type="line"/>
      <point x="56" y="376" type="line"/>
    </contour>
  </outline>
</glyph>
<glyph name="quoteright" format="1">
  <advance width="268"/>
  <unicode hex="2019"/>
  <unicode hex="02BC"/>
  <outline>
    <contour>
      <point x="375" y="720" type="line"/>
      <point x="181" y="399" type="line"/>
      <point x="63" y="399" type="line"/>
      <point x="158" y="720" type="line"/>
    </contour>
  </outline>
</glyph>
<glyph name="quotedblleft" format="1">
  <advance width="510"/>
  <unicode hex="201C"/>
  <outline>
    <contour>
      <point x="564" y="720" type="line"/>
      <point x="512" y="399" type="line"/>
      <point x="411" y="399" type="line"/>
      <point x="360" y="720" type="line"/>
    </contour>
    <contour>
      <point x="329" y="720" type="line"/>
      <point x="277" y="399" type="line"/>
      <point x="176" y="399" type="line"/>
      <point x="125" y="720" type="line"/>
    </contour>
  </outline>
</glyph>
<glyph name="perthousand" format="1">
  <advance width="1436"/>
  <unicode hex="2030"/>
  <outline>
    <contour>
      <point x="1414" y="274" type="curve" smooth="yes"/>
      <point x="1414" y="144"/>
      <point x="1323" y="-7"/>
      <point x="1173" y="-7" type="curve" smooth="yes"/>
      <point x="1070" y="-7"/>
      <point x="1000" y="48"/>
      <point x="1000" y="156" type="curve" smooth="yes"/>
      <point x="1000" y="286"/>
      <point x="1091" y="437"/>
      <point x="1241" y="437" type="curve" smooth="yes"/>
      <point x="1344" y="437"/>
      <point x="1414" y="382"/>
    </contour>
    <contour>
      <point x="970" y="274" type="curve" smooth="yes"/>
      <point x="970" y="144"/>
      <point x="879" y="-7"/>
      <point x="729" y="-7" type="curve" smooth="yes"/>
      <point x="626" y="-7"/>
      <point x="556" y="48"/>
      <point x="556" y="156" type="curve" smooth="yes"/>
      <point x="556" y="286"/>
      <point x="647" y="437"/>
      <point x="797" y="437" type="curve" smooth="yes"/>
      <point x="900" y="437"/>
      <point x="970" y="382"/>
    </contour>
    <contour>
      <point x="921" y="720" type="line"/>
      <point x="556" y="343" type="line"/>
      <point x="293" y="0" type="line"/>
      <point x="113" y="0" type="line"/>
      <point x="478" y="377" type="line"/>
      <point x="741" y="720" type="line"/>
    </contour>
    <contour>
      <point x="478" y="567" type="curve" smooth="yes"/>
      <point x="478" y="437"/>
      <point x="387" y="283"/>
      <point x="237" y="283" type="curve" smooth="yes"/>
      <point x="134" y="283"/>
      <point x="64" y="338"/>
      <point x="64" y="446" type="curve" smooth="yes"/>
      <point x="64" y="576"/>
      <point x="155" y="727"/>
      <point x="305" y="727" type="curve" smooth="yes"/>
      <point x="408" y="727"/>
      <point x="478" y="675"/>
    </contour>
    <contour>
      <point x="1272" y="268" type="curve" smooth="yes"/>
      <point x="1272" y="304"/>
      <point x="1256" y="325"/>
      <point x="1231" y="325" type="curve" smooth="yes"/>
      <point x="1171" y="325"/>
      <point x="1142" y="215"/>
      <point x="1142" y="162" type="curve" smooth="yes"/>
      <point x="1142" y="126"/>
      <point x="1158" y="105"/>
      <point x="1183" y="105" type="curve" smooth="yes"/>
      <point x="1243" y="105"/>
      <point x="1272" y="215"/>
    </contour>
    <contour>
      <point x="828" y="268" type="curve" smooth="yes"/>
      <point x="828" y="304"/>
      <point x="812" y="325"/>
      <point x="787" y="325" type="curve" smooth="yes"/>
      <point x="727" y="325"/>
      <point x="698" y="215"/>
      <point x="698" y="162" type="curve" smooth="yes"/>
      <point x="698" y="126"/>
      <point x="714" y="105"/>
      <point x="739" y="105" type="curve" smooth="yes"/>
      <point x="799" y="105"/>
      <point x="828" y="215"/>
    </contour>
    <contour>
      <point x="336" y="558" type="curve" smooth="yes"/>
      <point x="336" y="594"/>
      <point x="320" y="615"/>
      <point x="295" y="615" type="curve" smooth="yes"/>
      <point x="235" y="615"/>
      <point x="206" y="505"/>
      <point x="206" y="452" type="curve" smooth="yes"/>
      <point x="206" y="416"/>
      <point x="222" y="395"/>
      <point x="247" y="395" type="curve" smooth="yes"/>
      <point x="307" y="395"/>
      <point x="336" y="505"/>
    </contour>
  </outline>
</glyph>
<glyph name="guilsinglright" format="1">
  <advance width="304"/>
  <unicode hex="203A"/>
  <outline>
    <contour>
      <point x="294" y="271" type="line"/>
      <point x="85" y="65" type="line"/>
      <point x="-26" y="65" type="line"/>
      <point x="92" y="271" type="line"/>
      <point x="76" y="477" type="line"/>
      <point x="173" y="477" type="line"/>
    </contour>
  </outline>
</glyph>
<glyph name="uni2117" format="1">
  <advance width="810"/>
  <unicode hex="2117"/>
  <outline>
    <contour>
      <point x="799" y="361" type="curve" smooth="yes"/>
      <point x="799" y="147"/>
      <point x="640" y="-12"/>
      <point x="426" y="-12" type="curve" smooth="yes"/>
      <point x="212" y="-12"/>
      <point x="55" y="145"/>
      <point x="55" y="359" type="curve" smooth="yes"/>
      <point x="55" y="573"/>
      <point x="214" y="732"/>
      <point x="428" y="732" type="curve" smooth="yes"/>
      <point x="642" y="732"/>
      <point x="799" y="575"/>
    </contour>
    <contour>
      <point x="750" y="359" type="curve" smooth="yes"/>
      <point x="750" y="551"/>
      <point x="618" y="690"/>
      <point x="426" y="690" type="curve" smooth="yes"/>
      <point x="234" y="690"/>
      <point x="104" y="553"/>
      <point x="104" y="361" type="curve" smooth="yes"/>
      <point x="104" y="169"/>
      <point x="236" y="30"/>
      <point x="428" y="30" type="curve" smooth="yes"/>
      <point x="620" y="30"/>
      <point x="750" y="167"/>
    </contour>
    <contour>
      <point x="618" y="445" type="curve" smooth="yes"/>
      <point x="618" y="348"/>
      <point x="555" y="301"/>
      <point x="445" y="301" type="curve" smooth="yes"/>
      <point x="416" y="301" type="line"/>
      <point x="416" y="147" type="line"/>
      <point x="286" y="147" type="line"/>
      <point x="286" y="579" type="line"/>
      <point x="451" y="579" type="line" smooth="yes"/>
      <point x="552" y="579"/>
      <point x="618" y="537"/>
    </contour>
    <contour>
      <point x="489" y="444" type="curve" smooth="yes"/>
      <point x="489" y="474"/>
      <point x="470" y="489"/>
      <point x="437" y="489" type="curve" smooth="yes"/>
      <point x="411" y="489" type="line"/>
      <point x="411" y="393" type="line"/>
      <point x="437" y="393" type="line" smooth="yes"/>
      <point x="471" y="393"/>
      <point x="489" y="412"/>
    </contour>
  </outline>
</glyph>
<glyph name="minus" format="1">
  <advance width="600"/>
  <unicode hex="2212"/>
  <outline>
    <contour>
      <point x="588" y="268" type="line"/>
      <point x="54" y="268" type="line"/>
      <point x="54" y="442" type="line"/>
      <point x="588" y="442" type="line"/>
    </contour>
  </outline>
</glyph>
<glyph name="apple" format="1">
  <advance width="500"/>
  <unicode hex="F8FF"/>
  <outline>
    <contour>
      <point x="535" y="492" type="line"/>
      <point x="361" y="498" type="line"/>
      <point x="497" y="365" type="line"/>
      <point x="495" y="355" type="line"/>
      <point x="293" y="222" type="line"/>
      <point x="469" y="228" type="line"/>
      <point x="366" y="50" type="line"/>
      <point x="256" y="159" type="line"/>
      <point x="277" y="0" type="line"/>
      <point x="87" y="0" type="line"/>
      <point x="188" y="159" type="line"/>
      <point x="24" y="50" type="line"/>
      <point x="9" y="228" type="line"/>
      <point x="183" y="222" type="line"/>
      <point x="47" y="355" type="line"/>
      <point x="49" y="365" type="line"/>
      <point x="251" y="498" type="line"/>
      <point x="75" y="492" type="line"/>
      <point x="178" y="670" type="line"/>
      <point x="288" y="561" type="line"/>
      <point x="267" y="720" type="line"/>
      <point x="457" y="720" type="line"/>
      <point x="356" y="561" type="line"/>
      <point x="520" y="670" type="line"/>
    </contour>
    <contour>
      <point x="333" y="360" type="line"/>
      <point x="302" y="482" type="line"/>
      <point x="211" y="360" type="line"/>
      <point x="242" y="238" type="line"/>
    </contour>
  </outline>
</glyph>
<glyph name="I.salt" format="1">
  <advance width="304"/>
  <outline>
    <contour>
      <point x="372" y="720" type="line"/>
      <point x="192" y="0" type="line"/>
      <point x="-24" y="0" type="line"/>
      <point x="156" y="720" type="line"/>
    </contour>
  </outline>
</glyph>
<glyph name="a.salt" format="1">
  <advance width="543"/>
  <outline>
    <contour>
      <point x="520" y="415" type="curve" smooth="yes"/>
      <point x="520" y="395"/>
      <point x="517" y="370"/>
      <point x="511" y="344" type="curve" smooth="yes"/>
      <point x="453" y="112" type="line" smooth="yes"/>
      <point x="451" y="104"/>
      <point x="449" y="95"/>
      <point x="449" y="89" type="curve" smooth="yes"/>
      <point x="449" y="72"/>
      <point x="460" y="67"/>
      <point x="487" y="63" type="curve"/>
      <point x="470" y="-5" type="line"/>
      <point x="329" y="-5"/>
      <point x="279" y="19"/>
      <point x="267" y="67" type="curve"/>
      <point x="261" y="67" type="line"/>
      <point x="203" y="19"/>
      <point x="162" y="-5"/>
      <point x="104" y="-5" type="curve" smooth="yes"/>
      <point x="29" y="-5"/>
      <point x="-17" y="33"/>
      <point x="-17" y="109" type="curve" smooth="yes"/>
      <point x="-17" y="217"/>
      <point x="67" y="306"/>
      <point x="318" y="321" type="curve"/>
      <point x="325" y="350" type="line" smooth="yes"/>
      <point x="327" y="358"/>
      <point x="328" y="369"/>
      <point x="328" y="375" type="curve" smooth="yes"/>
      <point x="328" y="397"/>
      <point x="312" y="413"/>
      <point x="281" y="413" type="curve" smooth="yes"/>
      <point x="237" y="413"/>
      <point x="192" y="400"/>
      <point x="121" y="370" type="curve"/>
      <point x="91" y="487" type="line"/>
      <point x="177" y="528"/>
      <point x="256" y="548"/>
      <point x="339" y="548" type="curve" smooth="yes"/>
      <point x="460" y="548"/>
      <point x="520" y="499"/>
    </contour>
    <contour>
      <point x="301" y="252" type="line"/>
      <point x="204" y="238"/>
      <point x="174" y="197"/>
      <point x="174" y="158" type="curve" smooth="yes"/>
      <point x="174" y="127"/>
      <point x="189" y="110"/>
      <point x="226" y="110" type="curve" smooth="yes"/>
      <point x="239" y="110"/>
      <point x="252" y="114"/>
      <point x="268" y="121" type="curve"/>
    </contour>
  </outline>
</glyph>
<glyph name="bullet" format="1">
  <advance width="470"/>
  <outline>
    <contour>
      <point x="467" y="373" type="curve" smooth="yes"/>
      <point x="467" y="257"/>
      <point x="376" y="166"/>
      <point x="260" y="166" type="curve" smooth="yes"/>
      <point x="144" y="166"/>
      <point x="53" y="257"/>
      <point x="53" y="373" type="curve" smooth="yes"/>
      <point x="53" y="489"/>
      <point x="144" y="580"/>
      <point x="260" y="580" type="curve" smooth="yes"/>
      <point x="376" y="580"/>
      <point x="467" y="489"/>
    </contour>
  </outline>
</glyph>
<glyph name="macron" format="1">
  <advance width="500"/>
  <outline>
    <contour>
      <point x="520" y="730" type="line"/>
      <point x="492" y="618" type="line"/>
      <point x="180" y="618" type="line"/>
      <point x="208" y="730" type="line"/>
    </contour>
  </outline>
</glyph>
<glyph name="registered" format="1">
  <advance width="502"/>
  <outline>
    <contour>
      <point x="532" y="504" type="curve" smooth="yes"/>
      <point x="532" y="376"/>
      <point x="437" y="280"/>
      <point x="308" y="280" type="curve" smooth="yes"/>
      <point x="180" y="280"/>
      <point x="86" y="374"/>
      <point x="86" y="503" type="curve" smooth="yes"/>
      <point x="86" y="631"/>
      <point x="181" y="727"/>
      <point x="310" y="727" type="curve" smooth="yes"/>
      <point x="438" y="727"/>
      <point x="532" y="633"/>
    </contour>
    <contour>
      <point x="503" y="503" type="curve" smooth="yes"/>
      <point x="503" y="618"/>
      <point x="424" y="702"/>
      <point x="308" y="702" type="curve" smooth="yes"/>
      <point x="193" y="702"/>
      <point x="115" y="619"/>
      <point x="115" y="504" type="curve" smooth="yes"/>
      <point x="115" y="389"/>
      <point x="194" y="305"/>
      <point x="310" y="305" type="curve" smooth="yes"/>
      <point x="425" y="305"/>
      <point x="503" y="388"/>
    </contour>
    <contour>
      <point x="428" y="379" type="line"/>
      <point x="346" y="379" type="line"/>
      <point x="299" y="476" type="line"/>
      <point x="292" y="476" type="line"/>
      <point x="292" y="379" type="line"/>
      <point x="214" y="379" type="line"/>
      <point x="214" y="638" type="line"/>
      <point x="317" y="638" type="line" smooth="yes"/>
      <point x="376" y="638"/>
      <point x="415" y="613"/>
      <point x="415" y="558" type="curve" smooth="yes"/>
      <point x="415" y="526"/>
      <point x="400" y="502"/>
      <point x="372" y="488" type="curve"/>
    </contour>
    <contour>
      <point x="340" y="557" type="curve" smooth="yes"/>
      <point x="340" y="577"/>
      <point x="328" y="587"/>
      <point x="307" y="587" type="curve" smooth="yes"/>
      <point x="286" y="587" type="line"/>
      <point x="286" y="524" type="line"/>
      <point x="307" y="524" type="line" smooth="yes"/>
      <point x="329" y="524"/>
      <point x="340" y="536"/>
    </contour>
  </outline>
</glyph>
